<svg xmlns="http://www.w3.org/2000/svg" xmlns:xlink="http://www.w3.org/1999/xlink" width="500" zoomAndPan="magnify" viewBox="0 0 375 374.999991" height="500" preserveAspectRatio="xMidYMid meet" version="1.0"><defs><clipPath id="15a5bf7f29"><path d="M 72 119 L 291 119 L 291 310 L 72 310 Z M 72 119 " clip-rule="nonzero"/></clipPath><clipPath id="b58b4c02d1"><path d="M 166.042969 358.300781 L 29.25 163.84375 L 156.84375 74.085938 L 293.636719 268.542969 Z M 166.042969 358.300781 " clip-rule="nonzero"/></clipPath><clipPath id="26b90f210d"><path d="M 166.042969 358.300781 L 29.25 163.84375 L 156.84375 74.085938 L 293.636719 268.542969 Z M 166.042969 358.300781 " clip-rule="nonzero"/></clipPath></defs><g clip-path="url(#15a5bf7f29)"><g clip-path="url(#b58b4c02d1)"><g clip-path="url(#26b90f210d)"><path fill="#000000" d="M 124.261719 286.316406 C 164.074219 314.839844 218.871094 317.824219 262.503906 289.640625 C 273.460938 282.5625 282.910156 274.03125 290.773438 264.46875 L 290.441406 264.226562 C 282.695312 273.652344 273.351562 282.039062 262.496094 288.972656 C 260.132812 290.480469 257.734375 291.890625 255.308594 293.214844 C 251.101562 284.585938 246.351562 276.136719 241.070312 267.894531 C 249.457031 260.902344 257.027344 253.089844 263.703125 244.722656 L 263.464844 244.546875 C 256.820312 252.878906 249.257812 260.632812 240.855469 267.554688 C 236.511719 260.800781 231.808594 254.191406 226.738281 247.757812 C 223.34375 243.453125 219.839844 239.300781 216.230469 235.277344 C 220.738281 230.183594 225.066406 224.925781 229.1875 219.546875 L 229.050781 219.445312 C 224.9375 224.8125 220.609375 230.066406 216.105469 235.144531 C 204.742188 222.511719 192.339844 211.285156 179.128906 201.496094 L 193.492188 181.34375 L 178.796875 201.253906 C 165.886719 191.71875 152.207031 183.546875 137.976562 176.773438 C 141.214844 171.351562 144.695312 165.949219 148.394531 160.613281 L 148.253906 160.511719 C 144.550781 165.855469 141.0625 171.269531 137.808594 176.691406 C 126.34375 171.246094 114.523438 166.699219 102.457031 163.074219 C 106.195312 154.195312 110.847656 145.507812 116.347656 137.238281 L 116.089844 137.050781 C 110.566406 145.359375 105.871094 154.066406 102.074219 162.964844 C 93.894531 160.519531 85.597656 158.496094 77.234375 156.898438 C 80.34375 143.925781 85.605469 131.480469 92.90625 120.140625 L 92.566406 119.894531 C 67.269531 159.203125 65.644531 211.28125 92.660156 253.101562 C 99.457031 263.625 107.589844 272.757812 116.695312 280.433594 C 117.457031 281.101562 118.226562 281.753906 119.011719 282.386719 C 119.589844 282.898438 120.195312 283.371094 120.824219 283.808594 C 120.875 283.84375 120.929688 283.875 120.976562 283.910156 C 121.410156 284.230469 121.839844 284.558594 122.28125 284.871094 C 122.367188 284.933594 122.457031 284.988281 122.542969 285.050781 C 123.113281 285.476562 123.683594 285.902344 124.261719 286.316406 Z M 122.527344 282.539062 C 122.285156 282.351562 122.039062 282.164062 121.796875 281.976562 L 130.449219 269.824219 C 136.585938 274.453125 142.320312 279.433594 147.644531 284.722656 C 137.496094 287.367188 128.863281 286.683594 122.527344 282.539062 Z M 120.1875 280.71875 C 120.042969 280.601562 119.902344 280.476562 119.753906 280.359375 C 115.953125 276.816406 113.257812 271.675781 111.929688 264.867188 C 111.457031 262.453125 111.175781 259.894531 111.066406 257.207031 C 116.953125 260.488281 122.703125 264.148438 128.277344 268.210938 C 128.523438 268.390625 128.761719 268.578125 129.007812 268.757812 Z M 130.15625 287.46875 C 135.492188 288.335938 141.699219 287.71875 148.554688 285.640625 C 151.902344 289.019531 155.089844 292.527344 158.105469 296.136719 C 148.074219 295.042969 138.625 292.136719 130.15625 287.46875 Z M 113.207031 274.300781 C 108.558594 269.347656 104.503906 263.582031 101.167969 257.019531 C 100.136719 254.996094 99.203125 252.929688 98.34375 250.824219 C 102.253906 252.582031 106.117188 254.492188 109.917969 256.570312 C 109.929688 260.027344 110.214844 263.289062 110.785156 266.320312 C 111.339844 269.292969 112.15625 271.953125 113.207031 274.300781 Z M 141.378906 294.394531 C 147.15625 296.253906 153.246094 297.425781 159.554688 297.886719 C 160.960938 299.617188 162.320312 301.371094 163.648438 303.148438 C 155.992188 300.960938 148.527344 298.035156 141.378906 294.394531 Z M 103.121094 264.09375 C 99.832031 260.203125 96.734375 256.074219 93.878906 251.703125 C 93.066406 250.457031 92.28125 249.195312 91.515625 247.933594 C 93.121094 248.570312 94.71875 249.230469 96.308594 249.917969 C 97.378906 252.832031 98.601562 255.683594 99.984375 258.445312 C 100.964844 260.402344 102.019531 262.277344 103.121094 264.089844 Z M 166.074219 303.8125 C 164.644531 301.847656 163.167969 299.910156 161.644531 298 C 169.070312 298.359375 176.777344 297.757812 184.613281 296.179688 C 187.074219 299.96875 189.382812 303.828125 191.542969 307.753906 C 182.941406 307.332031 174.398438 306.007812 166.074219 303.8125 Z M 90.21875 245.730469 C 85.117188 236.875 81.242188 227.644531 78.554688 218.222656 C 82.652344 219.359375 86.730469 220.636719 90.757812 222.058594 C 91.238281 231.039062 92.820312 239.730469 95.59375 247.902344 C 93.8125 247.148438 92.019531 246.421875 90.21875 245.730469 Z M 160.328125 296.347656 C 160.324219 296.347656 160.320312 296.339844 160.316406 296.339844 C 157.148438 292.46875 153.785156 288.722656 150.234375 285.105469 C 156.21875 283.117188 162.667969 280.058594 169.4375 275.960938 C 174.726562 282.09375 179.554688 288.496094 183.917969 295.121094 C 175.855469 296.566406 167.9375 296.972656 160.328125 296.347656 Z M 97.519531 248.730469 C 94.394531 240.445312 92.527344 231.601562 91.847656 222.445312 C 99.210938 225.097656 106.433594 228.242188 113.484375 231.859375 C 111.328125 240.082031 110.109375 247.8125 109.945312 254.800781 C 105.863281 252.59375 101.71875 250.566406 97.519531 248.730469 Z M 149.375 284.238281 C 143.824219 278.667969 137.816406 273.425781 131.363281 268.558594 L 143.675781 251.273438 C 148.339844 254.957031 152.871094 258.890625 157.246094 263.089844 C 161.398438 267.074219 165.316406 271.210938 169.019531 275.476562 C 162.066406 279.535156 155.464844 282.457031 149.375 284.238281 Z M 111.011719 255.394531 C 110.925781 248.363281 111.980469 240.519531 114.042969 232.140625 C 123.957031 237.269531 133.503906 243.355469 142.5625 250.402344 L 129.941406 267.507812 C 129.699219 267.332031 129.464844 267.148438 129.222656 266.96875 C 123.328125 262.667969 117.242188 258.820312 111.011719 255.394531 Z M 192.53125 307.800781 C 190.308594 303.808594 187.925781 299.882812 185.394531 296.027344 C 194.628906 294.09375 204.03125 290.800781 213.371094 286.140625 C 217.214844 292.285156 220.722656 298.589844 223.898438 305.03125 C 213.539062 307.335938 202.996094 308.230469 192.53125 307.800781 Z M 78.339844 217.472656 C 75.808594 208.386719 74.382812 199.136719 74.011719 189.910156 C 80.25 191.144531 86.445312 192.667969 92.582031 194.464844 C 90.953125 203.585938 90.3125 212.648438 90.730469 221.445312 C 86.636719 219.980469 82.503906 218.648438 78.339844 217.472656 Z M 184.699219 294.984375 C 180.246094 288.304688 175.332031 281.839844 169.945312 275.65625 C 177.277344 271.171875 184.976562 265.472656 192.875 258.601562 C 200.359375 267.132812 207.070312 276.144531 213 285.546875 C 203.554688 290.105469 194.035156 293.238281 184.699219 294.984375 Z M 91.800781 221.832031 C 91.199219 212.980469 91.703125 203.847656 93.230469 194.65625 C 103.246094 197.625 113.09375 201.339844 122.691406 205.824219 C 118.839844 214.644531 115.769531 223.246094 113.613281 231.371094 C 106.507812 227.707031 99.21875 224.535156 91.804688 221.832031 Z M 169.519531 275.175781 C 165.90625 271.054688 162.097656 267.046875 158.070312 263.179688 C 153.511719 258.808594 148.796875 254.722656 143.9375 250.894531 L 160.074219 228.25 C 164.144531 231.300781 168.132812 234.511719 172.039062 237.894531 C 179.457031 244.324219 186.328125 251.171875 192.648438 258.351562 C 184.675781 265.191406 176.90625 270.816406 169.519531 275.175781 Z M 114.15625 231.65625 C 116.191406 223.503906 119.179688 214.851562 122.984375 205.96875 C 135.589844 211.882812 147.765625 219.113281 159.316406 227.683594 L 142.828125 250.03125 C 133.714844 242.960938 124.113281 236.832031 114.152344 231.65625 Z M 225.023438 304.761719 C 221.765625 298.269531 218.171875 291.902344 214.234375 285.710938 C 221.953125 281.785156 229.625 276.925781 237.09375 271.105469 C 238.238281 270.214844 239.359375 269.308594 240.472656 268.390625 C 245.675781 276.613281 250.339844 285.0625 254.464844 293.683594 C 245.011719 298.746094 235.105469 302.417969 225.023438 304.761719 Z M 73.972656 189.105469 C 73.621094 178.65625 74.636719 168.25 76.949219 158.148438 C 85.269531 159.660156 93.515625 161.613281 101.652344 163.96875 C 97.546875 173.785156 94.523438 183.820312 92.6875 193.792969 C 86.503906 191.949219 80.257812 190.386719 73.972656 189.105469 Z M 213.851562 285.128906 C 207.824219 275.714844 201.003906 266.683594 193.410156 258.132812 C 197.152344 254.855469 200.9375 251.316406 204.742188 247.511719 C 208.539062 243.722656 212.238281 239.785156 215.824219 235.746094 C 219.207031 239.53125 222.492188 243.449219 225.675781 247.492188 C 230.933594 254.160156 235.785156 261.019531 240.246094 268.042969 C 239.230469 268.871094 238.207031 269.699219 237.167969 270.5 C 229.558594 276.378906 221.734375 281.246094 213.851562 285.125 Z M 93.34375 193.980469 C 95.058594 183.980469 97.984375 173.914062 102.035156 164.085938 C 114.105469 167.605469 125.925781 172.046875 137.390625 177.40625 C 131.804688 186.777344 126.933594 196.171875 122.90625 205.335938 C 113.265625 200.804688 103.390625 197.011719 93.34375 193.980469 Z M 193.195312 257.890625 C 186.976562 250.910156 180.246094 244.25 172.992188 237.960938 C 168.882812 234.398438 164.671875 231.03125 160.378906 227.828125 L 178.777344 202.007812 C 191.984375 211.75 204.375 222.960938 215.695312 235.613281 C 212.210938 239.519531 208.617188 243.316406 204.929688 246.984375 C 200.984375 250.90625 197.066406 254.539062 193.191406 257.890625 Z M 123.199219 205.480469 C 127.15625 196.296875 131.988281 186.875 137.558594 177.488281 C 151.820312 184.167969 165.519531 192.261719 178.4375 201.757812 L 159.621094 227.261719 C 148.035156 218.695312 135.828125 211.441406 123.195312 205.476562 Z M 123.199219 205.480469 " fill-opacity="1" fill-rule="nonzero"/></g></g></g><path fill="#ffffff" d="M 359.9375 135.527344 C 356.5 150.847656 361.242188 168.246094 349.191406 173.660156 C 345.179688 120.507812 282.511719 110.757812 275.652344 109.324219 C 280.925781 115.871094 283.769531 121.238281 279.230469 124.113281 C 264.207031 131.207031 278.34375 67.324219 144.671875 76.375 C 179.128906 110.664062 46.808594 57.699219 -15.160156 72.441406 C 80.789062 96.714844 180.578125 212.472656 119.539062 173.144531 C 141.171875 242.394531 290.628906 224.710938 224.957031 299.664062 C 227.835938 308.714844 317.109375 310.691406 331.480469 273.992188 C 336.472656 261.222656 331.976562 254.988281 335.476562 241.585938 C 340.09375 223.917969 342.023438 215.472656 342.023438 215.472656 C 349.394531 210.824219 366.140625 205.863281 371.785156 191.105469 C 375.9375 180.238281 373.40625 160.425781 359.9375 135.527344 Z M 359.9375 135.527344 " fill-opacity="1" fill-rule="nonzero"/><path fill="#000000" d="M 10.996094 75.890625 C 55.347656 81.367188 213.667969 124.269531 220.992188 144.082031 C 223.652344 154.796875 195.988281 183.6875 226.933594 202.800781 C 146.085938 202.242188 181.042969 136.183594 10.996094 75.890625 Z M 267.023438 217.589844 C 243.757812 243.203125 299.835938 283.664062 236.402344 296.648438 C 282.589844 301.828125 307.703125 284.691406 313.613281 281.175781 C 307.066406 281.65625 300.9375 282.375 299.414062 282.792969 C 288.964844 292.078125 277.300781 279.652344 289.664062 270.492188 C 286.289062 236.824219 267.222656 247.882812 267.023438 217.589844 Z M 248.984375 202.226562 C 250.179688 196.597656 251.300781 192.195312 257.753906 188.710938 C 249.261719 185.011719 226.917969 187.5 227.320312 174.34375 C 221.164062 193.703125 249.109375 183.082031 248.984375 202.226562 Z M 248.984375 202.226562 " fill-opacity="1" fill-rule="nonzero"/><path fill="#000000" d="M 297.4375 279.496094 C 297.4375 279.496094 296.601562 283.089844 291.578125 283.089844 C 286.554688 283.089844 285.839844 273.386719 292.167969 272.902344 C 298.511719 272.421875 299.058594 279.324219 320.40625 275.421875 C 318.386719 279.015625 297.4375 279.496094 297.4375 279.496094 Z M 280.816406 228.414062 C 279.851562 228.054688 277.347656 229.484375 271.71875 220.996094 C 271.359375 236.421875 281.65625 237.976562 285.355469 246.234375 C 285.230469 239.050781 290.488281 226.902344 279.726562 209.566406 C 275.542969 210.886719 269.914062 214.027344 268.84375 215.351562 C 275.542969 215.582031 279.261719 217.292969 280.816406 228.414062 Z M 365.472656 189.210938 C 360.777344 197.140625 351.757812 203.53125 337.03125 210.34375 C 333.082031 223.855469 327.699219 240.339844 326.707031 250.574219 C 325.710938 260.804688 329.132812 264.785156 323.625 269.683594 C 313.769531 276.449219 298.09375 272.296875 293.691406 268.003906 C 290.816406 264.660156 288.1875 248.628906 289.152344 242.640625 C 290.113281 236.65625 292.152344 216.5625 281.140625 204.835938 C 222.128906 224.960938 297.144531 280.210938 241.800781 291.484375 C 253.121094 271.753906 261.097656 240.804688 192.984375 223.296875 C 208.132812 224.539062 216.589844 223.902344 222.359375 220.109375 C 200.886719 220.34375 174.976562 218.753906 158.042969 206.75 C 172.566406 210.0625 174.960938 207.777344 175.257812 207.746094 C 160.265625 206.097656 141.636719 197.21875 131.839844 186.050781 C 179.425781 207 134.003906 152.183594 88.625 118.066406 C 160.484375 159.195312 160.9375 192.894531 202.082031 203.175781 C 225.050781 207.480469 233.183594 206.515625 240.601562 205.570312 C 203.03125 190.964844 219.375 164.996094 225.535156 148.621094 C 233.355469 127.566406 130.300781 98.828125 65.734375 82.082031 C 162.847656 101.488281 165.148438 95.40625 157.484375 81.519531 C 189.640625 80.496094 211.972656 95.347656 211.972656 95.347656 C 211.972656 95.347656 204.136719 85.65625 195.863281 83.214844 C 236.589844 86.886719 245.640625 120.273438 245.640625 120.273438 C 245.640625 120.273438 244.707031 106.574219 238.582031 95.332031 C 263.320312 108.890625 264.519531 136.167969 283.164062 132.730469 C 288.917969 131.222656 290.535156 124.78125 287.628906 120.398438 C 296.148438 121.578125 307.828125 128.855469 316.707031 138.390625 C 316.488281 133.925781 315.277344 133.695312 314.203125 129.835938 C 341.214844 147.75 342.289062 166.894531 343.734375 182.335938 C 347.808594 183.300781 367.542969 178.511719 362.394531 149.320312 C 364.355469 157.113281 370.183594 181.277344 365.472656 189.210938 Z M 267.054688 187.980469 C 255.6875 181.277344 234.628906 182.832031 232.003906 176.847656 C 229.375 170.859375 231.613281 158.542969 233.773438 143.832031 C 207.277344 195.539062 234.398438 194.0625 251.628906 207.339844 C 252.34375 196.582031 259.992188 189.660156 267.054688 187.980469 Z M 363.933594 172.136719 C 362.019531 181.589844 353.3125 185.089844 343.75 186.519531 C 342.832031 193.082031 341.527344 195.492188 338.011719 207.839844 C 350.605469 178.929688 363.996094 194.078125 363.933594 172.136719 Z M 363.933594 172.136719 " fill-opacity="1" fill-rule="nonzero"/></svg>