<svg xmlns="http://www.w3.org/2000/svg" xmlns:xlink="http://www.w3.org/1999/xlink" width="1920" zoomAndPan="magnify" viewBox="0 0 1440 449.999984" height="600" preserveAspectRatio="xMidYMid meet" version="1.0"><defs><filter x="0%" y="0%" width="100%" height="100%" id="25eaa9eb6c"><feColorMatrix values="0 0 0 0 1 0 0 0 0 1 0 0 0 0 1 0 0 0 1 0" color-interpolation-filters="sRGB"/></filter><mask id="d2ed4423c4"><g filter="url(#25eaa9eb6c)"><rect x="-144" width="1728" fill="#000000" y="-44.999998" height="539.99998" fill-opacity="0.35"/></g></mask><clipPath id="f2eb58fbbe"><path d="M 208 0 L 1001 0 L 1001 450 L 208 450 Z M 208 0 " clip-rule="nonzero"/></clipPath><clipPath id="6ee42559d9"><path d="M 935.304688 -585.605469 L 1499.234375 344.253906 L 569.378906 908.183594 L 5.445312 -21.671875 Z M 935.304688 -585.605469 " clip-rule="nonzero"/></clipPath><clipPath id="0460651844"><path d="M 935.304688 -585.605469 L 1499.234375 344.253906 L 569.378906 908.183594 L 5.445312 -21.671875 Z M 935.304688 -585.605469 " clip-rule="nonzero"/></clipPath><clipPath id="18240256ea"><path d="M 1034.296875 626.101562 C 1026.6875 630.714844 1018.972656 635.140625 1011.148438 639.375 C 1003.320312 643.609375 995.398438 647.652344 987.375 651.496094 C 979.347656 655.34375 971.234375 658.992188 963.03125 662.4375 C 954.832031 665.886719 946.546875 669.132812 938.183594 672.171875 C 929.824219 675.214844 921.390625 678.046875 912.890625 680.675781 C 904.390625 683.300781 895.828125 685.71875 887.207031 687.925781 C 878.589844 690.132812 869.917969 692.128906 861.203125 693.910156 C 852.484375 695.691406 843.726562 697.257812 834.933594 698.609375 C 826.136719 699.960938 817.316406 701.09375 808.464844 702.011719 C 799.613281 702.929688 790.746094 703.632812 781.863281 704.113281 C 772.976562 704.597656 764.085938 704.859375 755.1875 704.90625 C 746.289062 704.953125 737.394531 704.78125 728.507812 704.390625 C 719.617188 704 710.742188 703.394531 701.882812 702.566406 C 693.023438 701.742188 684.1875 700.699219 675.378906 699.4375 C 666.574219 698.179688 657.800781 696.703125 649.0625 695.011719 C 640.328125 693.320312 631.640625 691.417969 622.996094 689.300781 C 614.355469 687.183594 605.769531 684.855469 597.242188 682.316406 C 588.710938 679.777344 580.25 677.03125 571.859375 674.078125 C 563.464844 671.125 555.148438 667.964844 546.910156 664.605469 C 538.671875 661.242188 530.523438 657.679688 522.457031 653.917969 C 514.394531 650.15625 506.429688 646.195312 498.558594 642.042969 C 490.691406 637.890625 482.929688 633.546875 475.273438 629.011719 C 467.617188 624.476562 460.078125 619.757812 452.652344 614.851562 C 445.230469 609.945312 437.929688 604.863281 430.753906 599.597656 C 423.582031 594.335938 416.539062 588.898438 409.632812 583.289062 C 402.722656 577.679688 395.957031 571.90625 389.335938 565.964844 C 382.710938 560.023438 376.238281 553.925781 369.910156 547.664062 C 363.585938 541.40625 357.421875 534.996094 351.410156 528.433594 C 345.402344 521.871094 339.554688 515.167969 333.875 508.316406 C 328.195312 501.46875 322.683594 494.484375 317.347656 487.367188 C 312.011719 480.246094 306.851562 473 301.867188 465.628906 C 296.886719 458.253906 292.089844 450.765625 287.472656 443.15625 C 282.859375 435.546875 278.433594 427.832031 274.199219 420.007812 C 269.964844 412.179688 265.925781 404.257812 262.078125 396.234375 C 258.230469 388.207031 254.585938 380.09375 251.136719 371.894531 C 247.6875 363.691406 244.445312 355.40625 241.402344 347.046875 C 238.363281 338.683594 235.527344 330.25 232.902344 321.75 C 230.273438 313.25 227.855469 304.6875 225.648438 296.066406 C 223.441406 287.449219 221.449219 278.777344 219.667969 270.0625 C 217.886719 261.34375 216.320312 252.585938 214.96875 243.792969 C 213.617188 234.996094 212.480469 226.175781 211.5625 217.324219 C 210.644531 208.472656 209.945312 199.605469 209.460938 190.722656 C 208.980469 181.835938 208.714844 172.945312 208.667969 164.046875 C 208.621094 155.148438 208.792969 146.253906 209.183594 137.367188 C 209.574219 128.476562 210.183594 119.601562 211.007812 110.742188 C 211.835938 101.882812 212.878906 93.046875 214.136719 84.242188 C 215.398438 75.433594 216.871094 66.660156 218.5625 57.925781 C 220.253906 49.1875 222.15625 40.5 224.273438 31.855469 C 226.390625 23.214844 228.71875 14.628906 231.257812 6.101562 C 233.796875 -2.429688 236.542969 -10.890625 239.496094 -19.28125 C 242.449219 -27.675781 245.609375 -35.992188 248.972656 -44.230469 C 252.332031 -52.46875 255.894531 -60.617188 259.660156 -68.683594 C 263.421875 -76.746094 267.378906 -84.710938 271.53125 -92.582031 C 275.6875 -100.449219 280.03125 -108.210938 284.566406 -115.867188 C 289.101562 -123.523438 293.820312 -131.0625 298.726562 -138.488281 C 303.628906 -145.910156 308.714844 -153.210938 313.976562 -160.386719 C 319.242188 -167.558594 324.675781 -174.601562 330.285156 -181.507812 C 335.894531 -188.417969 341.667969 -195.183594 347.609375 -201.804688 C 353.550781 -208.429688 359.652344 -214.902344 365.910156 -221.230469 C 372.167969 -227.554688 378.582031 -233.71875 385.140625 -239.730469 C 391.703125 -245.738281 398.410156 -251.585938 405.257812 -257.265625 C 412.105469 -262.945312 419.089844 -268.457031 426.210938 -273.792969 C 433.328125 -279.128906 440.574219 -284.289062 447.949219 -289.273438 C 455.320312 -294.253906 462.8125 -299.050781 470.417969 -303.667969 C 478.027344 -308.28125 485.742188 -312.703125 493.570312 -316.941406 C 501.394531 -321.175781 509.320312 -325.214844 517.34375 -329.0625 C 525.367188 -332.910156 533.480469 -336.554688 541.683594 -340.003906 C 549.886719 -343.453125 558.167969 -346.695312 566.53125 -349.738281 C 574.894531 -352.777344 583.324219 -355.613281 591.824219 -358.238281 C 600.328125 -360.867188 608.886719 -363.285156 617.507812 -365.492188 C 626.128906 -367.699219 634.796875 -369.691406 643.515625 -371.472656 C 652.234375 -373.253906 660.988281 -374.820312 669.785156 -376.171875 C 678.578125 -377.523438 687.402344 -378.660156 696.25 -379.578125 C 705.101562 -380.496094 713.96875 -381.195312 722.855469 -381.679688 C 731.738281 -382.160156 740.632812 -382.425781 749.527344 -382.472656 C 758.425781 -382.519531 767.320312 -382.347656 776.210938 -381.957031 C 785.097656 -381.566406 793.972656 -380.957031 802.832031 -380.132812 C 811.691406 -379.304688 820.527344 -378.261719 829.335938 -377.003906 C 838.144531 -375.742188 846.917969 -374.269531 855.652344 -372.578125 C 864.386719 -370.886719 873.078125 -368.984375 881.71875 -366.867188 C 890.363281 -364.75 898.949219 -362.421875 907.476562 -359.882812 C 916.003906 -357.34375 924.464844 -354.597656 932.859375 -351.644531 C 941.25 -348.6875 949.566406 -345.53125 957.804688 -342.167969 C 966.042969 -338.804688 974.195312 -335.246094 982.257812 -331.480469 C 990.320312 -327.71875 998.289062 -323.761719 1006.15625 -319.609375 C 1014.027344 -315.453125 1021.789062 -311.109375 1029.445312 -306.574219 C 1037.101562 -302.039062 1044.640625 -297.320312 1052.0625 -292.414062 C 1059.488281 -287.511719 1066.785156 -282.425781 1073.960938 -277.164062 C 1081.136719 -271.898438 1088.175781 -266.464844 1095.085938 -260.855469 C 1101.992188 -255.246094 1108.757812 -249.472656 1115.382812 -243.53125 C 1122.003906 -237.589844 1128.480469 -231.488281 1134.804688 -225.230469 C 1141.128906 -218.96875 1147.296875 -212.558594 1153.304688 -206 C 1159.316406 -199.4375 1165.160156 -192.730469 1170.839844 -185.882812 C 1176.523438 -179.035156 1182.03125 -172.050781 1187.367188 -164.929688 C 1192.707031 -157.8125 1197.867188 -150.566406 1202.847656 -143.191406 C 1207.828125 -135.820312 1212.628906 -128.328125 1217.242188 -120.722656 C 1221.855469 -113.113281 1226.28125 -105.394531 1230.515625 -97.570312 C 1234.75 -89.746094 1238.792969 -81.820312 1242.636719 -73.796875 C 1246.484375 -65.773438 1250.132812 -57.660156 1253.578125 -49.457031 C 1257.027344 -41.253906 1260.273438 -32.972656 1263.3125 -24.609375 C 1266.355469 -16.246094 1269.1875 -7.816406 1271.816406 0.683594 C 1274.441406 9.1875 1276.859375 17.746094 1279.066406 26.367188 C 1281.273438 34.988281 1283.269531 43.65625 1285.050781 52.375 C 1286.832031 61.09375 1288.398438 69.847656 1289.75 78.644531 C 1291.101562 87.4375 1292.234375 96.261719 1293.152344 105.109375 C 1294.070312 113.960938 1294.769531 122.828125 1295.253906 131.714844 C 1295.738281 140.597656 1296 149.492188 1296.046875 158.386719 C 1296.09375 167.285156 1295.921875 176.179688 1295.53125 185.070312 C 1295.140625 193.957031 1294.535156 202.832031 1293.707031 211.691406 C 1292.882812 220.550781 1291.839844 229.386719 1290.578125 238.195312 C 1289.320312 247.003906 1287.84375 255.777344 1286.152344 264.511719 C 1284.460938 273.246094 1282.558594 281.9375 1280.441406 290.578125 C 1278.324219 299.222656 1275.996094 307.808594 1273.457031 316.335938 C 1270.917969 324.863281 1268.171875 333.324219 1265.21875 341.71875 C 1262.265625 350.109375 1259.105469 358.425781 1255.746094 366.664062 C 1252.382812 374.902344 1248.820312 383.054688 1245.058594 391.117188 C 1241.296875 399.179688 1237.335938 407.148438 1233.183594 415.015625 C 1229.03125 422.886719 1224.6875 430.648438 1220.152344 438.304688 C 1215.617188 445.960938 1210.894531 453.5 1205.992188 460.921875 C 1201.085938 468.347656 1196.003906 475.648438 1190.738281 482.820312 C 1185.476562 489.996094 1180.039062 497.035156 1174.429688 503.945312 C 1168.820312 510.851562 1163.046875 517.617188 1157.105469 524.242188 C 1151.164062 530.863281 1145.066406 537.339844 1138.804688 543.664062 C 1132.546875 549.988281 1126.136719 556.15625 1119.574219 562.164062 C 1113.011719 568.175781 1106.308594 574.019531 1099.457031 579.699219 C 1092.609375 585.382812 1085.625 590.890625 1078.507812 596.226562 C 1071.386719 601.566406 1064.140625 606.726562 1056.769531 611.707031 C 1049.394531 616.691406 1041.90625 621.488281 1034.296875 626.101562 Z M 1034.296875 626.101562 " clip-rule="nonzero"/></clipPath><linearGradient x1="1800.127867" gradientTransform="matrix(-7.246826, 4.394998, -4.394998, -7.246826, 15126.880414, -6129.667923)" y1="244.834" x2="1907.599747" gradientUnits="userSpaceOnUse" y2="244.834" id="5a68f54a5f"><stop stop-opacity="1" stop-color="rgb(12.939453%, 50.218201%, 75.828552%)" offset="0"/><stop stop-opacity="1" stop-color="rgb(13.124084%, 50.523376%, 75.942993%)" offset="0.00390625"/><stop stop-opacity="1" stop-color="rgb(13.310242%, 50.828552%, 76.05896%)" offset="0.0078125"/><stop stop-opacity="1" stop-color="rgb(13.496399%, 51.133728%, 76.173401%)" offset="0.0117187"/><stop stop-opacity="1" stop-color="rgb(13.682556%, 51.438904%, 76.289368%)" offset="0.015625"/><stop stop-opacity="1" stop-color="rgb(13.868713%, 51.74408%, 76.405334%)" offset="0.0195312"/><stop stop-opacity="1" stop-color="rgb(14.054871%, 52.049255%, 76.521301%)" offset="0.0234375"/><stop stop-opacity="1" stop-color="rgb(14.241028%, 52.354431%, 76.635742%)" offset="0.0273437"/><stop stop-opacity="1" stop-color="rgb(14.427185%, 52.659607%, 76.751709%)" offset="0.03125"/><stop stop-opacity="1" stop-color="rgb(14.613342%, 52.963257%, 76.86615%)" offset="0.0351562"/><stop stop-opacity="1" stop-color="rgb(14.7995%, 53.268433%, 76.982117%)" offset="0.0390625"/><stop stop-opacity="1" stop-color="rgb(14.984131%, 53.573608%, 77.096558%)" offset="0.0429687"/><stop stop-opacity="1" stop-color="rgb(15.170288%, 53.878784%, 77.212524%)" offset="0.046875"/><stop stop-opacity="1" stop-color="rgb(15.356445%, 54.18396%, 77.328491%)" offset="0.0507813"/><stop stop-opacity="1" stop-color="rgb(15.542603%, 54.489136%, 77.444458%)" offset="0.0546875"/><stop stop-opacity="1" stop-color="rgb(15.72876%, 54.794312%, 77.558899%)" offset="0.0585938"/><stop stop-opacity="1" stop-color="rgb(15.914917%, 55.099487%, 77.674866%)" offset="0.0625"/><stop stop-opacity="1" stop-color="rgb(16.101074%, 55.404663%, 77.789307%)" offset="0.0664062"/><stop stop-opacity="1" stop-color="rgb(16.287231%, 55.709839%, 77.905273%)" offset="0.0703125"/><stop stop-opacity="1" stop-color="rgb(16.473389%, 56.015015%, 78.02124%)" offset="0.0742187"/><stop stop-opacity="1" stop-color="rgb(16.659546%, 56.32019%, 78.137207%)" offset="0.078125"/><stop stop-opacity="1" stop-color="rgb(16.845703%, 56.62384%, 78.251648%)" offset="0.0820313"/><stop stop-opacity="1" stop-color="rgb(17.03186%, 56.929016%, 78.367615%)" offset="0.0859375"/><stop stop-opacity="1" stop-color="rgb(17.216492%, 57.234192%, 78.482056%)" offset="0.0898438"/><stop stop-opacity="1" stop-color="rgb(17.402649%, 57.539368%, 78.598022%)" offset="0.09375"/><stop stop-opacity="1" stop-color="rgb(17.588806%, 57.844543%, 78.713989%)" offset="0.0976562"/><stop stop-opacity="1" stop-color="rgb(17.774963%, 58.149719%, 78.829956%)" offset="0.101562"/><stop stop-opacity="1" stop-color="rgb(17.961121%, 58.454895%, 78.944397%)" offset="0.105469"/><stop stop-opacity="1" stop-color="rgb(18.147278%, 58.760071%, 79.060364%)" offset="0.109375"/><stop stop-opacity="1" stop-color="rgb(18.333435%, 59.065247%, 79.174805%)" offset="0.113281"/><stop stop-opacity="1" stop-color="rgb(18.519592%, 59.370422%, 79.290771%)" offset="0.117188"/><stop stop-opacity="1" stop-color="rgb(18.70575%, 59.675598%, 79.405212%)" offset="0.121094"/><stop stop-opacity="1" stop-color="rgb(18.891907%, 59.980774%, 79.521179%)" offset="0.125"/><stop stop-opacity="1" stop-color="rgb(19.076538%, 60.28595%, 79.637146%)" offset="0.128906"/><stop stop-opacity="1" stop-color="rgb(19.262695%, 60.591125%, 79.753113%)" offset="0.132812"/><stop stop-opacity="1" stop-color="rgb(19.448853%, 60.894775%, 79.867554%)" offset="0.136719"/><stop stop-opacity="1" stop-color="rgb(19.63501%, 61.199951%, 79.983521%)" offset="0.140625"/><stop stop-opacity="1" stop-color="rgb(19.821167%, 61.505127%, 80.097961%)" offset="0.144531"/><stop stop-opacity="1" stop-color="rgb(20.007324%, 61.810303%, 80.213928%)" offset="0.148438"/><stop stop-opacity="1" stop-color="rgb(20.193481%, 62.115479%, 80.329895%)" offset="0.152344"/><stop stop-opacity="1" stop-color="rgb(20.379639%, 62.420654%, 80.445862%)" offset="0.15625"/><stop stop-opacity="1" stop-color="rgb(20.565796%, 62.72583%, 80.560303%)" offset="0.160156"/><stop stop-opacity="1" stop-color="rgb(20.751953%, 63.031006%, 80.67627%)" offset="0.164062"/><stop stop-opacity="1" stop-color="rgb(20.93811%, 63.336182%, 80.79071%)" offset="0.167969"/><stop stop-opacity="1" stop-color="rgb(21.124268%, 63.641357%, 80.906677%)" offset="0.171875"/><stop stop-opacity="1" stop-color="rgb(21.308899%, 63.946533%, 81.021118%)" offset="0.175781"/><stop stop-opacity="1" stop-color="rgb(21.495056%, 64.251709%, 81.137085%)" offset="0.179688"/><stop stop-opacity="1" stop-color="rgb(21.681213%, 64.555359%, 81.253052%)" offset="0.183594"/><stop stop-opacity="1" stop-color="rgb(21.867371%, 64.860535%, 81.369019%)" offset="0.1875"/><stop stop-opacity="1" stop-color="rgb(22.053528%, 65.16571%, 81.483459%)" offset="0.191406"/><stop stop-opacity="1" stop-color="rgb(22.239685%, 65.470886%, 81.599426%)" offset="0.195312"/><stop stop-opacity="1" stop-color="rgb(22.425842%, 65.776062%, 81.713867%)" offset="0.199219"/><stop stop-opacity="1" stop-color="rgb(22.612%, 66.081238%, 81.829834%)" offset="0.203125"/><stop stop-opacity="1" stop-color="rgb(22.798157%, 66.386414%, 81.945801%)" offset="0.207031"/><stop stop-opacity="1" stop-color="rgb(22.984314%, 66.691589%, 82.061768%)" offset="0.210938"/><stop stop-opacity="1" stop-color="rgb(23.170471%, 66.996765%, 82.176208%)" offset="0.214844"/><stop stop-opacity="1" stop-color="rgb(23.356628%, 67.301941%, 82.292175%)" offset="0.21875"/><stop stop-opacity="1" stop-color="rgb(23.54126%, 67.607117%, 82.406616%)" offset="0.222656"/><stop stop-opacity="1" stop-color="rgb(23.727417%, 67.912292%, 82.522583%)" offset="0.226562"/><stop stop-opacity="1" stop-color="rgb(23.913574%, 68.215942%, 82.637024%)" offset="0.230469"/><stop stop-opacity="1" stop-color="rgb(24.099731%, 68.521118%, 82.752991%)" offset="0.234375"/><stop stop-opacity="1" stop-color="rgb(24.285889%, 68.826294%, 82.868958%)" offset="0.238281"/><stop stop-opacity="1" stop-color="rgb(24.472046%, 69.13147%, 82.984924%)" offset="0.242187"/><stop stop-opacity="1" stop-color="rgb(24.658203%, 69.436646%, 83.099365%)" offset="0.246094"/><stop stop-opacity="1" stop-color="rgb(24.84436%, 69.741821%, 83.215332%)" offset="0.25"/><stop stop-opacity="1" stop-color="rgb(25.030518%, 70.046997%, 83.329773%)" offset="0.253906"/><stop stop-opacity="1" stop-color="rgb(25.216675%, 70.352173%, 83.44574%)" offset="0.257812"/><stop stop-opacity="1" stop-color="rgb(25.401306%, 70.657349%, 83.561707%)" offset="0.261719"/><stop stop-opacity="1" stop-color="rgb(25.587463%, 70.962524%, 83.677673%)" offset="0.265625"/><stop stop-opacity="1" stop-color="rgb(25.773621%, 71.2677%, 83.792114%)" offset="0.269531"/><stop stop-opacity="1" stop-color="rgb(25.959778%, 71.572876%, 83.908081%)" offset="0.273437"/><stop stop-opacity="1" stop-color="rgb(26.145935%, 71.876526%, 84.022522%)" offset="0.277344"/><stop stop-opacity="1" stop-color="rgb(26.332092%, 72.181702%, 84.138489%)" offset="0.28125"/><stop stop-opacity="1" stop-color="rgb(26.51825%, 72.486877%, 84.254456%)" offset="0.285156"/><stop stop-opacity="1" stop-color="rgb(26.704407%, 72.792053%, 84.370422%)" offset="0.289062"/><stop stop-opacity="1" stop-color="rgb(26.890564%, 73.097229%, 84.484863%)" offset="0.292969"/><stop stop-opacity="1" stop-color="rgb(27.076721%, 73.402405%, 84.60083%)" offset="0.296875"/><stop stop-opacity="1" stop-color="rgb(27.262878%, 73.707581%, 84.715271%)" offset="0.300781"/><stop stop-opacity="1" stop-color="rgb(27.449036%, 74.012756%, 84.831238%)" offset="0.304688"/><stop stop-opacity="1" stop-color="rgb(27.633667%, 74.317932%, 84.945679%)" offset="0.308594"/><stop stop-opacity="1" stop-color="rgb(27.819824%, 74.623108%, 85.061646%)" offset="0.3125"/><stop stop-opacity="1" stop-color="rgb(28.005981%, 74.928284%, 85.177612%)" offset="0.316406"/><stop stop-opacity="1" stop-color="rgb(28.192139%, 75.233459%, 85.293579%)" offset="0.320312"/><stop stop-opacity="1" stop-color="rgb(28.378296%, 75.538635%, 85.40802%)" offset="0.324219"/><stop stop-opacity="1" stop-color="rgb(28.564453%, 75.843811%, 85.523987%)" offset="0.328125"/><stop stop-opacity="1" stop-color="rgb(28.75061%, 76.147461%, 85.638428%)" offset="0.332031"/><stop stop-opacity="1" stop-color="rgb(28.936768%, 76.452637%, 85.754395%)" offset="0.335938"/><stop stop-opacity="1" stop-color="rgb(29.122925%, 76.757812%, 85.870361%)" offset="0.339844"/><stop stop-opacity="1" stop-color="rgb(29.309082%, 77.062988%, 85.986328%)" offset="0.34375"/><stop stop-opacity="1" stop-color="rgb(29.493713%, 77.368164%, 86.100769%)" offset="0.347656"/><stop stop-opacity="1" stop-color="rgb(29.679871%, 77.67334%, 86.216736%)" offset="0.351562"/><stop stop-opacity="1" stop-color="rgb(29.866028%, 77.978516%, 86.331177%)" offset="0.355469"/><stop stop-opacity="1" stop-color="rgb(30.052185%, 78.283691%, 86.447144%)" offset="0.359375"/><stop stop-opacity="1" stop-color="rgb(30.238342%, 78.588867%, 86.561584%)" offset="0.363281"/><stop stop-opacity="1" stop-color="rgb(30.4245%, 78.894043%, 86.677551%)" offset="0.367187"/><stop stop-opacity="1" stop-color="rgb(30.610657%, 79.199219%, 86.793518%)" offset="0.371094"/><stop stop-opacity="1" stop-color="rgb(30.796814%, 79.504395%, 86.909485%)" offset="0.375"/><stop stop-opacity="1" stop-color="rgb(30.982971%, 79.808044%, 87.023926%)" offset="0.378906"/><stop stop-opacity="1" stop-color="rgb(31.169128%, 80.11322%, 87.139893%)" offset="0.382813"/><stop stop-opacity="1" stop-color="rgb(31.355286%, 80.418396%, 87.254333%)" offset="0.386719"/><stop stop-opacity="1" stop-color="rgb(31.541443%, 80.723572%, 87.3703%)" offset="0.390625"/><stop stop-opacity="1" stop-color="rgb(31.726074%, 81.028748%, 87.486267%)" offset="0.394531"/><stop stop-opacity="1" stop-color="rgb(31.912231%, 81.333923%, 87.602234%)" offset="0.398438"/><stop stop-opacity="1" stop-color="rgb(32.098389%, 81.639099%, 87.716675%)" offset="0.402344"/><stop stop-opacity="1" stop-color="rgb(32.284546%, 81.944275%, 87.832642%)" offset="0.40625"/><stop stop-opacity="1" stop-color="rgb(32.470703%, 82.249451%, 87.947083%)" offset="0.410156"/><stop stop-opacity="1" stop-color="rgb(32.65686%, 82.554626%, 88.063049%)" offset="0.414062"/><stop stop-opacity="1" stop-color="rgb(32.843018%, 82.859802%, 88.17749%)" offset="0.417969"/><stop stop-opacity="1" stop-color="rgb(33.029175%, 83.164978%, 88.293457%)" offset="0.421875"/><stop stop-opacity="1" stop-color="rgb(33.215332%, 83.468628%, 88.409424%)" offset="0.425781"/><stop stop-opacity="1" stop-color="rgb(33.401489%, 83.773804%, 88.525391%)" offset="0.429687"/><stop stop-opacity="1" stop-color="rgb(33.587646%, 84.078979%, 88.639832%)" offset="0.433594"/><stop stop-opacity="1" stop-color="rgb(33.773804%, 84.384155%, 88.755798%)" offset="0.4375"/><stop stop-opacity="1" stop-color="rgb(33.958435%, 84.689331%, 88.870239%)" offset="0.441406"/><stop stop-opacity="1" stop-color="rgb(34.144592%, 84.994507%, 88.986206%)" offset="0.445313"/><stop stop-opacity="1" stop-color="rgb(34.33075%, 85.299683%, 89.102173%)" offset="0.449219"/><stop stop-opacity="1" stop-color="rgb(34.516907%, 85.604858%, 89.21814%)" offset="0.453125"/><stop stop-opacity="1" stop-color="rgb(34.703064%, 85.910034%, 89.332581%)" offset="0.457031"/><stop stop-opacity="1" stop-color="rgb(34.889221%, 86.21521%, 89.448547%)" offset="0.460938"/><stop stop-opacity="1" stop-color="rgb(35.075378%, 86.520386%, 89.562988%)" offset="0.464844"/><stop stop-opacity="1" stop-color="rgb(35.261536%, 86.825562%, 89.678955%)" offset="0.46875"/><stop stop-opacity="1" stop-color="rgb(35.447693%, 87.129211%, 89.793396%)" offset="0.472656"/><stop stop-opacity="1" stop-color="rgb(35.63385%, 87.434387%, 89.909363%)" offset="0.476562"/><stop stop-opacity="1" stop-color="rgb(35.818481%, 87.739563%, 90.02533%)" offset="0.480469"/><stop stop-opacity="1" stop-color="rgb(36.004639%, 88.044739%, 90.141296%)" offset="0.484375"/><stop stop-opacity="1" stop-color="rgb(36.489868%, 88.201904%, 90.237427%)" offset="0.488281"/><stop stop-opacity="1" stop-color="rgb(36.975098%, 88.360596%, 90.333557%)" offset="0.492187"/><stop stop-opacity="1" stop-color="rgb(37.561035%, 88.468933%, 90.423584%)" offset="0.496094"/><stop stop-opacity="1" stop-color="rgb(38.146973%, 88.577271%, 90.513611%)" offset="0.5"/><stop stop-opacity="1" stop-color="rgb(38.731384%, 88.685608%, 90.602112%)" offset="0.503906"/><stop stop-opacity="1" stop-color="rgb(39.317322%, 88.793945%, 90.692139%)" offset="0.507813"/><stop stop-opacity="1" stop-color="rgb(39.903259%, 88.902283%, 90.782166%)" offset="0.511719"/><stop stop-opacity="1" stop-color="rgb(40.489197%, 89.01062%, 90.872192%)" offset="0.515625"/><stop stop-opacity="1" stop-color="rgb(41.075134%, 89.117432%, 90.962219%)" offset="0.519531"/><stop stop-opacity="1" stop-color="rgb(41.661072%, 89.225769%, 91.052246%)" offset="0.523438"/><stop stop-opacity="1" stop-color="rgb(42.245483%, 89.334106%, 91.142273%)" offset="0.527344"/><stop stop-opacity="1" stop-color="rgb(42.831421%, 89.442444%, 91.2323%)" offset="0.53125"/><stop stop-opacity="1" stop-color="rgb(43.417358%, 89.550781%, 91.320801%)" offset="0.535156"/><stop stop-opacity="1" stop-color="rgb(44.003296%, 89.659119%, 91.410828%)" offset="0.539062"/><stop stop-opacity="1" stop-color="rgb(44.589233%, 89.767456%, 91.500854%)" offset="0.542969"/><stop stop-opacity="1" stop-color="rgb(45.175171%, 89.875793%, 91.590881%)" offset="0.546875"/><stop stop-opacity="1" stop-color="rgb(45.759583%, 89.982605%, 91.680908%)" offset="0.550781"/><stop stop-opacity="1" stop-color="rgb(46.34552%, 90.090942%, 91.770935%)" offset="0.554687"/><stop stop-opacity="1" stop-color="rgb(46.931458%, 90.19928%, 91.860962%)" offset="0.558594"/><stop stop-opacity="1" stop-color="rgb(47.517395%, 90.307617%, 91.950989%)" offset="0.5625"/><stop stop-opacity="1" stop-color="rgb(48.103333%, 90.415955%, 92.03949%)" offset="0.566406"/><stop stop-opacity="1" stop-color="rgb(48.68927%, 90.524292%, 92.129517%)" offset="0.570312"/><stop stop-opacity="1" stop-color="rgb(49.273682%, 90.632629%, 92.219543%)" offset="0.574219"/><stop stop-opacity="1" stop-color="rgb(49.859619%, 90.740967%, 92.30957%)" offset="0.578125"/><stop stop-opacity="1" stop-color="rgb(50.445557%, 90.847778%, 92.399597%)" offset="0.582031"/><stop stop-opacity="1" stop-color="rgb(51.031494%, 90.956116%, 92.489624%)" offset="0.585937"/><stop stop-opacity="1" stop-color="rgb(51.617432%, 91.064453%, 92.579651%)" offset="0.589844"/><stop stop-opacity="1" stop-color="rgb(52.203369%, 91.172791%, 92.669678%)" offset="0.59375"/><stop stop-opacity="1" stop-color="rgb(52.787781%, 91.281128%, 92.758179%)" offset="0.597656"/><stop stop-opacity="1" stop-color="rgb(53.373718%, 91.389465%, 92.848206%)" offset="0.601562"/><stop stop-opacity="1" stop-color="rgb(53.959656%, 91.497803%, 92.938232%)" offset="0.605469"/><stop stop-opacity="1" stop-color="rgb(54.545593%, 91.60614%, 93.028259%)" offset="0.609375"/><stop stop-opacity="1" stop-color="rgb(55.130005%, 91.712952%, 93.118286%)" offset="0.613281"/><stop stop-opacity="1" stop-color="rgb(55.715942%, 91.821289%, 93.208313%)" offset="0.617187"/><stop stop-opacity="1" stop-color="rgb(56.30188%, 91.929626%, 93.296814%)" offset="0.621094"/><stop stop-opacity="1" stop-color="rgb(56.887817%, 92.037964%, 93.386841%)" offset="0.625"/><stop stop-opacity="1" stop-color="rgb(57.473755%, 92.146301%, 93.476868%)" offset="0.628906"/><stop stop-opacity="1" stop-color="rgb(58.059692%, 92.254639%, 93.566895%)" offset="0.632812"/><stop stop-opacity="1" stop-color="rgb(58.644104%, 92.362976%, 93.656921%)" offset="0.636719"/><stop stop-opacity="1" stop-color="rgb(59.230042%, 92.471313%, 93.746948%)" offset="0.640625"/><stop stop-opacity="1" stop-color="rgb(59.815979%, 92.578125%, 93.836975%)" offset="0.644531"/><stop stop-opacity="1" stop-color="rgb(60.401917%, 92.686462%, 93.927002%)" offset="0.648437"/><stop stop-opacity="1" stop-color="rgb(60.987854%, 92.7948%, 94.015503%)" offset="0.652344"/><stop stop-opacity="1" stop-color="rgb(61.573792%, 92.903137%, 94.10553%)" offset="0.65625"/><stop stop-opacity="1" stop-color="rgb(62.158203%, 93.011475%, 94.195557%)" offset="0.660156"/><stop stop-opacity="1" stop-color="rgb(62.744141%, 93.119812%, 94.285583%)" offset="0.664062"/><stop stop-opacity="1" stop-color="rgb(63.330078%, 93.228149%, 94.37561%)" offset="0.667969"/><stop stop-opacity="1" stop-color="rgb(63.916016%, 93.336487%, 94.465637%)" offset="0.671875"/><stop stop-opacity="1" stop-color="rgb(64.501953%, 93.443298%, 94.555664%)" offset="0.675781"/><stop stop-opacity="1" stop-color="rgb(65.087891%, 93.551636%, 94.645691%)" offset="0.679688"/><stop stop-opacity="1" stop-color="rgb(65.672302%, 93.659973%, 94.734192%)" offset="0.683594"/><stop stop-opacity="1" stop-color="rgb(66.25824%, 93.768311%, 94.824219%)" offset="0.6875"/><stop stop-opacity="1" stop-color="rgb(66.844177%, 93.876648%, 94.914246%)" offset="0.691406"/><stop stop-opacity="1" stop-color="rgb(67.430115%, 93.984985%, 95.004272%)" offset="0.695312"/><stop stop-opacity="1" stop-color="rgb(68.016052%, 94.093323%, 95.094299%)" offset="0.699219"/><stop stop-opacity="1" stop-color="rgb(68.60199%, 94.20166%, 95.184326%)" offset="0.703125"/><stop stop-opacity="1" stop-color="rgb(69.186401%, 94.308472%, 95.272827%)" offset="0.707031"/><stop stop-opacity="1" stop-color="rgb(69.772339%, 94.416809%, 95.362854%)" offset="0.710937"/><stop stop-opacity="1" stop-color="rgb(70.358276%, 94.525146%, 95.452881%)" offset="0.714844"/><stop stop-opacity="1" stop-color="rgb(70.944214%, 94.633484%, 95.542908%)" offset="0.71875"/><stop stop-opacity="1" stop-color="rgb(71.530151%, 94.741821%, 95.632935%)" offset="0.722656"/><stop stop-opacity="1" stop-color="rgb(72.116089%, 94.850159%, 95.722961%)" offset="0.726562"/><stop stop-opacity="1" stop-color="rgb(72.7005%, 94.958496%, 95.812988%)" offset="0.730469"/><stop stop-opacity="1" stop-color="rgb(73.286438%, 95.066833%, 95.903015%)" offset="0.734375"/><stop stop-opacity="1" stop-color="rgb(73.872375%, 95.175171%, 95.991516%)" offset="0.738281"/><stop stop-opacity="1" stop-color="rgb(74.458313%, 95.283508%, 96.081543%)" offset="0.742188"/><stop stop-opacity="1" stop-color="rgb(75.04425%, 95.39032%, 96.17157%)" offset="0.746094"/><stop stop-opacity="1" stop-color="rgb(75.630188%, 95.498657%, 96.261597%)" offset="0.75"/><stop stop-opacity="1" stop-color="rgb(76.2146%, 95.606995%, 96.351624%)" offset="0.753906"/><stop stop-opacity="1" stop-color="rgb(76.800537%, 95.715332%, 96.44165%)" offset="0.757812"/><stop stop-opacity="1" stop-color="rgb(77.386475%, 95.823669%, 96.531677%)" offset="0.761719"/><stop stop-opacity="1" stop-color="rgb(77.972412%, 95.932007%, 96.621704%)" offset="0.765625"/><stop stop-opacity="1" stop-color="rgb(78.55835%, 96.040344%, 96.710205%)" offset="0.769531"/><stop stop-opacity="1" stop-color="rgb(79.144287%, 96.148682%, 96.800232%)" offset="0.773437"/><stop stop-opacity="1" stop-color="rgb(79.728699%, 96.255493%, 96.890259%)" offset="0.777344"/><stop stop-opacity="1" stop-color="rgb(80.314636%, 96.363831%, 96.980286%)" offset="0.78125"/><stop stop-opacity="1" stop-color="rgb(80.900574%, 96.472168%, 97.070312%)" offset="0.785156"/><stop stop-opacity="1" stop-color="rgb(81.486511%, 96.580505%, 97.160339%)" offset="0.789062"/><stop stop-opacity="1" stop-color="rgb(82.072449%, 96.688843%, 97.250366%)" offset="0.792969"/><stop stop-opacity="1" stop-color="rgb(82.658386%, 96.79718%, 97.340393%)" offset="0.796875"/><stop stop-opacity="1" stop-color="rgb(83.242798%, 96.905518%, 97.428894%)" offset="0.800781"/><stop stop-opacity="1" stop-color="rgb(83.828735%, 97.013855%, 97.518921%)" offset="0.804688"/><stop stop-opacity="1" stop-color="rgb(84.414673%, 97.120667%, 97.608948%)" offset="0.808594"/><stop stop-opacity="1" stop-color="rgb(85.00061%, 97.229004%, 97.698975%)" offset="0.8125"/><stop stop-opacity="1" stop-color="rgb(85.586548%, 97.337341%, 97.789001%)" offset="0.816406"/><stop stop-opacity="1" stop-color="rgb(86.172485%, 97.445679%, 97.879028%)" offset="0.820312"/><stop stop-opacity="1" stop-color="rgb(86.756897%, 97.554016%, 97.967529%)" offset="0.824219"/><stop stop-opacity="1" stop-color="rgb(87.342834%, 97.662354%, 98.057556%)" offset="0.828125"/><stop stop-opacity="1" stop-color="rgb(87.928772%, 97.770691%, 98.147583%)" offset="0.832031"/><stop stop-opacity="1" stop-color="rgb(88.514709%, 97.879028%, 98.23761%)" offset="0.835937"/><stop stop-opacity="1" stop-color="rgb(89.100647%, 97.98584%, 98.327637%)" offset="0.839844"/><stop stop-opacity="1" stop-color="rgb(89.686584%, 98.094177%, 98.417664%)" offset="0.84375"/><stop stop-opacity="1" stop-color="rgb(90.270996%, 98.202515%, 98.50769%)" offset="0.847656"/><stop stop-opacity="1" stop-color="rgb(90.856934%, 98.310852%, 98.597717%)" offset="0.851563"/><stop stop-opacity="1" stop-color="rgb(91.442871%, 98.419189%, 98.686218%)" offset="0.855469"/><stop stop-opacity="1" stop-color="rgb(92.028809%, 98.527527%, 98.776245%)" offset="0.859375"/><stop stop-opacity="1" stop-color="rgb(92.614746%, 98.635864%, 98.866272%)" offset="0.863281"/><stop stop-opacity="1" stop-color="rgb(93.200684%, 98.744202%, 98.956299%)" offset="0.867188"/><stop stop-opacity="1" stop-color="rgb(93.785095%, 98.851013%, 99.046326%)" offset="0.871094"/><stop stop-opacity="1" stop-color="rgb(94.371033%, 98.959351%, 99.136353%)" offset="0.875"/><stop stop-opacity="1" stop-color="rgb(94.95697%, 99.067688%, 99.226379%)" offset="0.878906"/><stop stop-opacity="1" stop-color="rgb(95.542908%, 99.176025%, 99.316406%)" offset="0.882812"/><stop stop-opacity="1" stop-color="rgb(96.128845%, 99.284363%, 99.404907%)" offset="0.886719"/><stop stop-opacity="1" stop-color="rgb(96.714783%, 99.3927%, 99.494934%)" offset="0.890625"/><stop stop-opacity="1" stop-color="rgb(97.299194%, 99.501038%, 99.584961%)" offset="0.894531"/><stop stop-opacity="1" stop-color="rgb(97.885132%, 99.609375%, 99.674988%)" offset="0.898437"/><stop stop-opacity="1" stop-color="rgb(98.471069%, 99.716187%, 99.765015%)" offset="0.902344"/><stop stop-opacity="1" stop-color="rgb(99.057007%, 99.824524%, 99.855042%)" offset="0.90625"/><stop stop-opacity="1" stop-color="rgb(99.528503%, 99.911499%, 99.926758%)" offset="0.910156"/><stop stop-opacity="1" stop-color="rgb(100%, 100%, 100%)" offset="0.914063"/><stop stop-opacity="1" stop-color="rgb(100%, 100%, 100%)" offset="0.921875"/><stop stop-opacity="1" stop-color="rgb(100%, 100%, 100%)" offset="0.9375"/><stop stop-opacity="1" stop-color="rgb(100%, 100%, 100%)" offset="1"/></linearGradient><clipPath id="97ad7ce82b"><rect x="0" width="1001" y="0" height="450"/></clipPath></defs><g mask="url(#d2ed4423c4)"><g transform="matrix(1, 0, 0, 1, 439, 0)"><g clip-path="url(#97ad7ce82b)"><g clip-path="url(#f2eb58fbbe)"><g clip-path="url(#6ee42559d9)"><g clip-path="url(#0460651844)"><g clip-path="url(#18240256ea)"><path fill="url(#5a68f54a5f)" d="M 1200.523438 328.992188 L 787.925781 -351.332031 L 9.097656 121.007812 L 421.695312 801.332031 Z M 1200.523438 328.992188 " fill-rule="nonzero"/></g></g></g></g></g></g></g></svg>