<svg xmlns="http://www.w3.org/2000/svg" xmlns:xlink="http://www.w3.org/1999/xlink" width="1920" zoomAndPan="magnify" viewBox="0 0 1440 374.999991" height="500" preserveAspectRatio="xMidYMid meet" version="1.0"><defs><filter x="0%" y="0%" width="100%" height="100%" id="0639f5ae55"><feColorMatrix values="0 0 0 0 1 0 0 0 0 1 0 0 0 0 1 0 0 0 1 0" color-interpolation-filters="sRGB"/></filter><mask id="d03bf56b5e"><g filter="url(#0639f5ae55)"><rect x="-144" width="1728" fill="#000000" y="-37.499999" height="449.999989" fill-opacity="0.35"/></g></mask><clipPath id="3a1fef54a7"><path d="M 186 0 L 859 0 L 859 375 L 186 375 Z M 186 0 " clip-rule="nonzero"/></clipPath><clipPath id="932a3e9e61"><path d="M 832.96875 -530.351562 L 1334.675781 296.902344 L 507.421875 798.609375 L 5.71875 -28.644531 Z M 832.96875 -530.351562 " clip-rule="nonzero"/></clipPath><clipPath id="b0dd78678e"><path d="M 832.96875 -530.351562 L 1334.675781 296.902344 L 507.421875 798.609375 L 5.71875 -28.644531 Z M 832.96875 -530.351562 " clip-rule="nonzero"/></clipPath><clipPath id="0341117473"><path d="M 921.078125 548.109375 C 914.308594 552.214844 907.4375 556.152344 900.472656 559.921875 C 893.507812 563.691406 886.457031 567.289062 879.316406 570.710938 C 872.171875 574.132812 864.953125 577.378906 857.652344 580.449219 C 850.351562 583.519531 842.980469 586.40625 835.535156 589.113281 C 828.09375 591.820312 820.589844 594.339844 813.023438 596.679688 C 805.457031 599.019531 797.835938 601.167969 790.164062 603.132812 C 782.492188 605.097656 774.777344 606.871094 767.019531 608.457031 C 759.257812 610.042969 751.464844 611.4375 743.636719 612.640625 C 735.808594 613.84375 727.957031 614.851562 720.082031 615.671875 C 712.203125 616.488281 704.3125 617.109375 696.402344 617.542969 C 688.496094 617.972656 680.582031 618.207031 672.660156 618.246094 C 664.742188 618.289062 656.828125 618.136719 648.914062 617.789062 C 641.003906 617.441406 633.105469 616.898438 625.21875 616.164062 C 617.332031 615.429688 609.472656 614.5 601.632812 613.378906 C 593.792969 612.257812 585.984375 610.945312 578.207031 609.441406 C 570.433594 607.9375 562.699219 606.242188 555.007812 604.355469 C 547.316406 602.472656 539.675781 600.402344 532.085938 598.140625 C 524.492188 595.882812 516.964844 593.4375 509.492188 590.808594 C 502.023438 588.179688 494.621094 585.367188 487.289062 582.375 C 479.957031 579.382812 472.703125 576.214844 465.523438 572.863281 C 458.347656 569.515625 451.257812 565.992188 444.253906 562.296875 C 437.25 558.597656 430.34375 554.734375 423.527344 550.695312 C 416.714844 546.660156 410.003906 542.460938 403.394531 538.09375 C 396.789062 533.730469 390.292969 529.203125 383.90625 524.519531 C 377.519531 519.835938 371.253906 514.996094 365.105469 510.003906 C 358.957031 505.011719 352.9375 499.871094 347.042969 494.585938 C 341.144531 489.296875 335.382812 483.867188 329.753906 478.296875 C 324.125 472.726562 318.636719 467.019531 313.289062 461.179688 C 307.9375 455.339844 302.734375 449.371094 297.679688 443.277344 C 292.625 437.179688 287.722656 430.964844 282.96875 424.628906 C 278.21875 418.292969 273.628906 411.84375 269.191406 405.28125 C 264.757812 398.71875 260.488281 392.050781 256.382812 385.28125 C 252.273438 378.507812 248.335938 371.640625 244.566406 364.675781 C 240.796875 357.710938 237.203125 350.660156 233.777344 343.515625 C 230.355469 336.375 227.109375 329.152344 224.039062 321.851562 C 220.972656 314.550781 218.085938 307.179688 215.378906 299.738281 C 212.671875 292.296875 210.148438 284.792969 207.808594 277.226562 C 205.472656 269.660156 203.320312 262.039062 201.355469 254.367188 C 199.390625 246.695312 197.617188 238.980469 196.03125 231.21875 C 194.445312 223.460938 193.050781 215.667969 191.847656 207.839844 C 190.644531 200.011719 189.636719 192.160156 188.820312 184.28125 C 188 176.40625 187.378906 168.511719 186.949219 160.605469 C 186.519531 152.695312 186.285156 144.785156 186.242188 136.863281 C 186.199219 128.945312 186.355469 121.027344 186.703125 113.117188 C 187.050781 105.203125 187.589844 97.304688 188.324219 89.421875 C 189.0625 81.535156 189.988281 73.671875 191.109375 65.832031 C 192.230469 57.992188 193.542969 50.1875 195.050781 42.410156 C 196.554688 34.636719 198.246094 26.902344 200.132812 19.210938 C 202.015625 11.519531 204.089844 3.875 206.347656 -3.714844 C 208.605469 -11.304688 211.050781 -18.835938 213.679688 -26.304688 C 216.308594 -33.773438 219.121094 -41.175781 222.113281 -48.507812 C 225.105469 -55.839844 228.277344 -63.097656 231.625 -70.273438 C 234.972656 -77.449219 238.496094 -84.539062 242.195312 -91.542969 C 245.890625 -98.546875 249.757812 -105.457031 253.792969 -112.269531 C 257.828125 -119.082031 262.03125 -125.792969 266.394531 -132.402344 C 270.761719 -139.007812 275.285156 -145.507812 279.96875 -151.890625 C 284.65625 -158.277344 289.492188 -164.542969 294.484375 -170.691406 C 299.476562 -176.839844 304.617188 -182.859375 309.90625 -188.757812 C 315.191406 -194.652344 320.621094 -200.414062 326.191406 -206.042969 C 331.765625 -211.671875 337.46875 -217.160156 343.308594 -222.511719 C 349.148438 -227.859375 355.117188 -233.0625 361.214844 -238.117188 C 367.308594 -243.171875 373.523438 -248.078125 379.863281 -252.828125 C 386.199219 -257.578125 392.648438 -262.171875 399.207031 -266.605469 C 405.769531 -271.039062 412.4375 -275.308594 419.207031 -279.414062 C 425.980469 -283.523438 432.847656 -287.460938 439.8125 -291.230469 C 446.777344 -295 453.832031 -298.597656 460.972656 -302.019531 C 468.113281 -305.441406 475.335938 -308.6875 482.636719 -311.757812 C 489.9375 -314.824219 497.308594 -317.714844 504.75 -320.421875 C 512.195312 -323.128906 519.699219 -325.648438 527.265625 -327.988281 C 534.832031 -330.328125 542.449219 -332.476562 550.121094 -334.441406 C 557.792969 -336.40625 565.511719 -338.179688 573.269531 -339.765625 C 581.027344 -341.351562 588.820312 -342.746094 596.648438 -343.949219 C 604.476562 -345.152344 612.328125 -346.160156 620.207031 -346.980469 C 628.085938 -347.796875 635.976562 -348.417969 643.886719 -348.847656 C 651.792969 -349.277344 659.707031 -349.515625 667.625 -349.554688 C 675.546875 -349.597656 683.460938 -349.445312 691.371094 -349.097656 C 699.285156 -348.75 707.183594 -348.207031 715.070312 -347.472656 C 722.953125 -346.738281 730.816406 -345.808594 738.65625 -344.6875 C 746.496094 -343.566406 754.304688 -342.253906 762.078125 -340.75 C 769.855469 -339.246094 777.585938 -337.550781 785.28125 -335.664062 C 792.972656 -333.78125 800.613281 -331.710938 808.203125 -329.449219 C 815.792969 -327.191406 823.324219 -324.746094 830.792969 -322.117188 C 838.265625 -319.488281 845.667969 -316.675781 853 -313.683594 C 860.332031 -310.691406 867.585938 -307.519531 874.761719 -304.171875 C 881.9375 -300.824219 889.027344 -297.300781 896.03125 -293.605469 C 903.035156 -289.90625 909.945312 -286.039062 916.757812 -282.003906 C 923.574219 -277.96875 930.285156 -273.769531 936.890625 -269.402344 C 943.5 -265.035156 949.996094 -260.511719 956.382812 -255.828125 C 962.765625 -251.144531 969.035156 -246.304688 975.179688 -241.3125 C 981.328125 -236.320312 987.351562 -231.179688 993.246094 -225.894531 C 999.140625 -220.605469 1004.90625 -215.175781 1010.535156 -209.605469 C 1016.164062 -204.035156 1021.652344 -198.328125 1027 -192.488281 C 1032.347656 -186.648438 1037.550781 -180.679688 1042.605469 -174.585938 C 1047.664062 -168.488281 1052.566406 -162.273438 1057.316406 -155.9375 C 1062.066406 -149.601562 1066.660156 -143.152344 1071.09375 -136.589844 C 1075.527344 -130.027344 1079.796875 -123.359375 1083.90625 -116.589844 C 1088.011719 -109.816406 1091.949219 -102.949219 1095.71875 -95.984375 C 1099.488281 -89.019531 1103.085938 -81.964844 1106.507812 -74.824219 C 1109.933594 -67.683594 1113.179688 -60.460938 1116.246094 -53.160156 C 1119.316406 -45.859375 1122.203125 -38.488281 1124.910156 -31.046875 C 1127.617188 -23.605469 1130.140625 -16.097656 1132.476562 -8.53125 C 1134.816406 -0.964844 1136.96875 6.652344 1138.929688 14.324219 C 1140.894531 21.996094 1142.671875 29.710938 1144.257812 37.472656 C 1145.839844 45.230469 1147.234375 53.023438 1148.4375 60.851562 C 1149.640625 68.679688 1150.652344 76.53125 1151.46875 84.410156 C 1152.285156 92.285156 1152.910156 100.179688 1153.339844 108.085938 C 1153.769531 115.996094 1154.003906 123.910156 1154.046875 131.828125 C 1154.085938 139.746094 1153.933594 147.664062 1153.585938 155.574219 C 1153.238281 163.488281 1152.699219 171.386719 1151.960938 179.269531 C 1151.226562 187.15625 1150.296875 195.019531 1149.175781 202.859375 C 1148.054688 210.699219 1146.742188 218.503906 1145.238281 226.28125 C 1143.734375 234.054688 1142.039062 241.789062 1140.15625 249.480469 C 1138.269531 257.175781 1136.199219 264.816406 1133.941406 272.40625 C 1131.679688 279.996094 1129.234375 287.527344 1126.605469 294.996094 C 1123.976562 302.46875 1121.167969 309.867188 1118.175781 317.199219 C 1115.183594 324.53125 1112.011719 331.789062 1108.664062 338.964844 C 1105.3125 346.140625 1101.789062 353.230469 1098.09375 360.234375 C 1094.398438 367.238281 1090.53125 374.148438 1086.496094 380.960938 C 1082.457031 387.773438 1078.257812 394.484375 1073.890625 401.09375 C 1069.527344 407.699219 1065 414.199219 1060.316406 420.582031 C 1055.632812 426.96875 1050.792969 433.234375 1045.800781 439.382812 C 1040.808594 445.53125 1035.671875 451.554688 1030.382812 457.449219 C 1025.09375 463.34375 1019.664062 469.105469 1014.09375 474.734375 C 1008.523438 480.363281 1002.816406 485.851562 996.976562 491.203125 C 991.136719 496.550781 985.167969 501.753906 979.074219 506.808594 C 972.976562 511.867188 966.761719 516.769531 960.425781 521.519531 C 954.089844 526.269531 947.640625 530.863281 941.078125 535.296875 C 934.515625 539.730469 927.851562 544 921.078125 548.109375 Z M 921.078125 548.109375 " clip-rule="nonzero"/></clipPath><linearGradient x1="1804.433782" gradientTransform="matrix(-6.449911, 3.911691, -3.911691, -6.449911, 13463.934935, -5464.746601)" y1="244.834" x2="1906.474281" gradientUnits="userSpaceOnUse" y2="244.834" id="b5cef68ae8"><stop stop-opacity="1" stop-color="rgb(14.846802%, 53.347778%, 77.012634%)" offset="0"/><stop stop-opacity="1" stop-color="rgb(15.022278%, 53.636169%, 77.120972%)" offset="0.00390625"/><stop stop-opacity="1" stop-color="rgb(15.19928%, 53.926086%, 77.230835%)" offset="0.0078125"/><stop stop-opacity="1" stop-color="rgb(15.376282%, 54.216003%, 77.340698%)" offset="0.0117188"/><stop stop-opacity="1" stop-color="rgb(15.553284%, 54.50592%, 77.450562%)" offset="0.015625"/><stop stop-opacity="1" stop-color="rgb(15.72876%, 54.795837%, 77.560425%)" offset="0.0195313"/><stop stop-opacity="1" stop-color="rgb(15.905762%, 55.085754%, 77.670288%)" offset="0.0234375"/><stop stop-opacity="1" stop-color="rgb(16.082764%, 55.374146%, 77.778625%)" offset="0.0273437"/><stop stop-opacity="1" stop-color="rgb(16.259766%, 55.664062%, 77.888489%)" offset="0.03125"/><stop stop-opacity="1" stop-color="rgb(16.435242%, 55.953979%, 77.998352%)" offset="0.0351563"/><stop stop-opacity="1" stop-color="rgb(16.612244%, 56.243896%, 78.108215%)" offset="0.0390625"/><stop stop-opacity="1" stop-color="rgb(16.789246%, 56.533813%, 78.218079%)" offset="0.0429687"/><stop stop-opacity="1" stop-color="rgb(16.966248%, 56.82373%, 78.327942%)" offset="0.046875"/><stop stop-opacity="1" stop-color="rgb(17.141724%, 57.112122%, 78.436279%)" offset="0.0507813"/><stop stop-opacity="1" stop-color="rgb(17.318726%, 57.402039%, 78.546143%)" offset="0.0546875"/><stop stop-opacity="1" stop-color="rgb(17.495728%, 57.691956%, 78.656006%)" offset="0.0585937"/><stop stop-opacity="1" stop-color="rgb(17.672729%, 57.981873%, 78.765869%)" offset="0.0625"/><stop stop-opacity="1" stop-color="rgb(17.848206%, 58.270264%, 78.874207%)" offset="0.0664062"/><stop stop-opacity="1" stop-color="rgb(18.025208%, 58.560181%, 78.98407%)" offset="0.0703125"/><stop stop-opacity="1" stop-color="rgb(18.202209%, 58.850098%, 79.093933%)" offset="0.0742187"/><stop stop-opacity="1" stop-color="rgb(18.379211%, 59.140015%, 79.203796%)" offset="0.078125"/><stop stop-opacity="1" stop-color="rgb(18.554688%, 59.429932%, 79.31366%)" offset="0.0820312"/><stop stop-opacity="1" stop-color="rgb(18.731689%, 59.719849%, 79.423523%)" offset="0.0859375"/><stop stop-opacity="1" stop-color="rgb(18.908691%, 60.00824%, 79.53186%)" offset="0.0898438"/><stop stop-opacity="1" stop-color="rgb(19.085693%, 60.298157%, 79.641724%)" offset="0.09375"/><stop stop-opacity="1" stop-color="rgb(19.261169%, 60.588074%, 79.751587%)" offset="0.0976562"/><stop stop-opacity="1" stop-color="rgb(19.438171%, 60.877991%, 79.86145%)" offset="0.101562"/><stop stop-opacity="1" stop-color="rgb(19.615173%, 61.167908%, 79.971313%)" offset="0.105469"/><stop stop-opacity="1" stop-color="rgb(19.792175%, 61.457825%, 80.081177%)" offset="0.109375"/><stop stop-opacity="1" stop-color="rgb(19.967651%, 61.746216%, 80.189514%)" offset="0.113281"/><stop stop-opacity="1" stop-color="rgb(20.144653%, 62.036133%, 80.299377%)" offset="0.117187"/><stop stop-opacity="1" stop-color="rgb(20.321655%, 62.32605%, 80.409241%)" offset="0.121094"/><stop stop-opacity="1" stop-color="rgb(20.498657%, 62.615967%, 80.519104%)" offset="0.125"/><stop stop-opacity="1" stop-color="rgb(20.674133%, 62.905884%, 80.628967%)" offset="0.128906"/><stop stop-opacity="1" stop-color="rgb(20.851135%, 63.195801%, 80.738831%)" offset="0.132812"/><stop stop-opacity="1" stop-color="rgb(21.028137%, 63.484192%, 80.847168%)" offset="0.136719"/><stop stop-opacity="1" stop-color="rgb(21.205139%, 63.774109%, 80.957031%)" offset="0.140625"/><stop stop-opacity="1" stop-color="rgb(21.380615%, 64.064026%, 81.066895%)" offset="0.144531"/><stop stop-opacity="1" stop-color="rgb(21.557617%, 64.353943%, 81.176758%)" offset="0.148438"/><stop stop-opacity="1" stop-color="rgb(21.734619%, 64.642334%, 81.286621%)" offset="0.152344"/><stop stop-opacity="1" stop-color="rgb(21.911621%, 64.932251%, 81.396484%)" offset="0.15625"/><stop stop-opacity="1" stop-color="rgb(22.087097%, 65.222168%, 81.504822%)" offset="0.160156"/><stop stop-opacity="1" stop-color="rgb(22.264099%, 65.512085%, 81.614685%)" offset="0.164062"/><stop stop-opacity="1" stop-color="rgb(22.441101%, 65.802002%, 81.724548%)" offset="0.167969"/><stop stop-opacity="1" stop-color="rgb(22.618103%, 66.091919%, 81.834412%)" offset="0.171875"/><stop stop-opacity="1" stop-color="rgb(22.793579%, 66.38031%, 81.942749%)" offset="0.175781"/><stop stop-opacity="1" stop-color="rgb(22.970581%, 66.670227%, 82.052612%)" offset="0.179688"/><stop stop-opacity="1" stop-color="rgb(23.147583%, 66.960144%, 82.162476%)" offset="0.183594"/><stop stop-opacity="1" stop-color="rgb(23.324585%, 67.250061%, 82.272339%)" offset="0.1875"/><stop stop-opacity="1" stop-color="rgb(23.500061%, 67.539978%, 82.382202%)" offset="0.191406"/><stop stop-opacity="1" stop-color="rgb(23.677063%, 67.829895%, 82.492065%)" offset="0.195312"/><stop stop-opacity="1" stop-color="rgb(23.854065%, 68.118286%, 82.600403%)" offset="0.199219"/><stop stop-opacity="1" stop-color="rgb(24.031067%, 68.408203%, 82.710266%)" offset="0.203125"/><stop stop-opacity="1" stop-color="rgb(24.206543%, 68.69812%, 82.820129%)" offset="0.207031"/><stop stop-opacity="1" stop-color="rgb(24.383545%, 68.988037%, 82.929993%)" offset="0.210938"/><stop stop-opacity="1" stop-color="rgb(24.560547%, 69.277954%, 83.039856%)" offset="0.214844"/><stop stop-opacity="1" stop-color="rgb(24.737549%, 69.567871%, 83.149719%)" offset="0.21875"/><stop stop-opacity="1" stop-color="rgb(24.913025%, 69.856262%, 83.258057%)" offset="0.222656"/><stop stop-opacity="1" stop-color="rgb(25.090027%, 70.146179%, 83.36792%)" offset="0.226562"/><stop stop-opacity="1" stop-color="rgb(25.267029%, 70.436096%, 83.477783%)" offset="0.230469"/><stop stop-opacity="1" stop-color="rgb(25.444031%, 70.726013%, 83.587646%)" offset="0.234375"/><stop stop-opacity="1" stop-color="rgb(25.619507%, 71.014404%, 83.69751%)" offset="0.238281"/><stop stop-opacity="1" stop-color="rgb(25.796509%, 71.304321%, 83.807373%)" offset="0.242188"/><stop stop-opacity="1" stop-color="rgb(25.973511%, 71.594238%, 83.91571%)" offset="0.246094"/><stop stop-opacity="1" stop-color="rgb(26.150513%, 71.884155%, 84.025574%)" offset="0.25"/><stop stop-opacity="1" stop-color="rgb(26.325989%, 72.174072%, 84.135437%)" offset="0.253906"/><stop stop-opacity="1" stop-color="rgb(26.502991%, 72.463989%, 84.2453%)" offset="0.257812"/><stop stop-opacity="1" stop-color="rgb(26.679993%, 72.75238%, 84.355164%)" offset="0.261719"/><stop stop-opacity="1" stop-color="rgb(26.856995%, 73.042297%, 84.465027%)" offset="0.265625"/><stop stop-opacity="1" stop-color="rgb(27.032471%, 73.332214%, 84.573364%)" offset="0.269531"/><stop stop-opacity="1" stop-color="rgb(27.209473%, 73.622131%, 84.683228%)" offset="0.273438"/><stop stop-opacity="1" stop-color="rgb(27.386475%, 73.912048%, 84.793091%)" offset="0.277344"/><stop stop-opacity="1" stop-color="rgb(27.563477%, 74.201965%, 84.902954%)" offset="0.28125"/><stop stop-opacity="1" stop-color="rgb(27.738953%, 74.490356%, 85.011292%)" offset="0.285156"/><stop stop-opacity="1" stop-color="rgb(27.915955%, 74.780273%, 85.121155%)" offset="0.289062"/><stop stop-opacity="1" stop-color="rgb(28.092957%, 75.07019%, 85.231018%)" offset="0.292969"/><stop stop-opacity="1" stop-color="rgb(28.269958%, 75.360107%, 85.340881%)" offset="0.296875"/><stop stop-opacity="1" stop-color="rgb(28.445435%, 75.648499%, 85.450745%)" offset="0.300781"/><stop stop-opacity="1" stop-color="rgb(28.622437%, 75.938416%, 85.560608%)" offset="0.304687"/><stop stop-opacity="1" stop-color="rgb(28.799438%, 76.228333%, 85.668945%)" offset="0.308594"/><stop stop-opacity="1" stop-color="rgb(28.97644%, 76.51825%, 85.778809%)" offset="0.3125"/><stop stop-opacity="1" stop-color="rgb(29.151917%, 76.808167%, 85.888672%)" offset="0.316406"/><stop stop-opacity="1" stop-color="rgb(29.328918%, 77.098083%, 85.998535%)" offset="0.320313"/><stop stop-opacity="1" stop-color="rgb(29.50592%, 77.386475%, 86.108398%)" offset="0.324219"/><stop stop-opacity="1" stop-color="rgb(29.682922%, 77.676392%, 86.218262%)" offset="0.328125"/><stop stop-opacity="1" stop-color="rgb(29.858398%, 77.966309%, 86.326599%)" offset="0.332031"/><stop stop-opacity="1" stop-color="rgb(30.0354%, 78.256226%, 86.436462%)" offset="0.335937"/><stop stop-opacity="1" stop-color="rgb(30.212402%, 78.546143%, 86.546326%)" offset="0.339844"/><stop stop-opacity="1" stop-color="rgb(30.389404%, 78.83606%, 86.656189%)" offset="0.34375"/><stop stop-opacity="1" stop-color="rgb(30.56488%, 79.124451%, 86.766052%)" offset="0.347656"/><stop stop-opacity="1" stop-color="rgb(30.741882%, 79.414368%, 86.875916%)" offset="0.351562"/><stop stop-opacity="1" stop-color="rgb(30.918884%, 79.704285%, 86.984253%)" offset="0.355469"/><stop stop-opacity="1" stop-color="rgb(31.095886%, 79.994202%, 87.094116%)" offset="0.359375"/><stop stop-opacity="1" stop-color="rgb(31.271362%, 80.284119%, 87.203979%)" offset="0.363281"/><stop stop-opacity="1" stop-color="rgb(31.448364%, 80.574036%, 87.313843%)" offset="0.367188"/><stop stop-opacity="1" stop-color="rgb(31.625366%, 80.862427%, 87.423706%)" offset="0.371094"/><stop stop-opacity="1" stop-color="rgb(31.802368%, 81.152344%, 87.533569%)" offset="0.375"/><stop stop-opacity="1" stop-color="rgb(31.977844%, 81.442261%, 87.641907%)" offset="0.378906"/><stop stop-opacity="1" stop-color="rgb(32.154846%, 81.732178%, 87.75177%)" offset="0.382812"/><stop stop-opacity="1" stop-color="rgb(32.331848%, 82.020569%, 87.861633%)" offset="0.386719"/><stop stop-opacity="1" stop-color="rgb(32.50885%, 82.310486%, 87.971497%)" offset="0.390625"/><stop stop-opacity="1" stop-color="rgb(32.684326%, 82.600403%, 88.08136%)" offset="0.394531"/><stop stop-opacity="1" stop-color="rgb(32.861328%, 82.89032%, 88.191223%)" offset="0.398438"/><stop stop-opacity="1" stop-color="rgb(33.03833%, 83.180237%, 88.299561%)" offset="0.402344"/><stop stop-opacity="1" stop-color="rgb(33.215332%, 83.470154%, 88.409424%)" offset="0.40625"/><stop stop-opacity="1" stop-color="rgb(33.390808%, 83.758545%, 88.519287%)" offset="0.410156"/><stop stop-opacity="1" stop-color="rgb(33.56781%, 84.048462%, 88.62915%)" offset="0.414063"/><stop stop-opacity="1" stop-color="rgb(33.744812%, 84.338379%, 88.737488%)" offset="0.417969"/><stop stop-opacity="1" stop-color="rgb(33.921814%, 84.628296%, 88.847351%)" offset="0.421875"/><stop stop-opacity="1" stop-color="rgb(34.09729%, 84.918213%, 88.957214%)" offset="0.425781"/><stop stop-opacity="1" stop-color="rgb(34.274292%, 85.20813%, 89.067078%)" offset="0.429688"/><stop stop-opacity="1" stop-color="rgb(34.451294%, 85.496521%, 89.176941%)" offset="0.433594"/><stop stop-opacity="1" stop-color="rgb(34.628296%, 85.786438%, 89.286804%)" offset="0.4375"/><stop stop-opacity="1" stop-color="rgb(34.803772%, 86.076355%, 89.395142%)" offset="0.441406"/><stop stop-opacity="1" stop-color="rgb(34.980774%, 86.366272%, 89.505005%)" offset="0.445313"/><stop stop-opacity="1" stop-color="rgb(35.157776%, 86.654663%, 89.614868%)" offset="0.449219"/><stop stop-opacity="1" stop-color="rgb(35.334778%, 86.94458%, 89.724731%)" offset="0.453125"/><stop stop-opacity="1" stop-color="rgb(35.510254%, 87.234497%, 89.834595%)" offset="0.457031"/><stop stop-opacity="1" stop-color="rgb(35.687256%, 87.524414%, 89.944458%)" offset="0.460937"/><stop stop-opacity="1" stop-color="rgb(35.864258%, 87.814331%, 90.052795%)" offset="0.464844"/><stop stop-opacity="1" stop-color="rgb(36.04126%, 88.104248%, 90.162659%)" offset="0.46875"/><stop stop-opacity="1" stop-color="rgb(36.534119%, 88.237%, 90.25116%)" offset="0.472656"/><stop stop-opacity="1" stop-color="rgb(37.028503%, 88.371277%, 90.341187%)" offset="0.476563"/><stop stop-opacity="1" stop-color="rgb(37.583923%, 88.473511%, 90.426636%)" offset="0.480469"/><stop stop-opacity="1" stop-color="rgb(38.140869%, 88.575745%, 90.512085%)" offset="0.484375"/><stop stop-opacity="1" stop-color="rgb(38.696289%, 88.677979%, 90.597534%)" offset="0.488281"/><stop stop-opacity="1" stop-color="rgb(39.253235%, 88.781738%, 90.682983%)" offset="0.492188"/><stop stop-opacity="1" stop-color="rgb(39.808655%, 88.883972%, 90.768433%)" offset="0.496094"/><stop stop-opacity="1" stop-color="rgb(40.364075%, 88.986206%, 90.853882%)" offset="0.5"/><stop stop-opacity="1" stop-color="rgb(40.919495%, 89.08844%, 90.937805%)" offset="0.503906"/><stop stop-opacity="1" stop-color="rgb(41.47644%, 89.1922%, 91.023254%)" offset="0.507812"/><stop stop-opacity="1" stop-color="rgb(42.03186%, 89.294434%, 91.108704%)" offset="0.511719"/><stop stop-opacity="1" stop-color="rgb(42.588806%, 89.398193%, 91.194153%)" offset="0.515625"/><stop stop-opacity="1" stop-color="rgb(43.144226%, 89.500427%, 91.279602%)" offset="0.519531"/><stop stop-opacity="1" stop-color="rgb(43.701172%, 89.602661%, 91.365051%)" offset="0.523438"/><stop stop-opacity="1" stop-color="rgb(44.256592%, 89.704895%, 91.4505%)" offset="0.527344"/><stop stop-opacity="1" stop-color="rgb(44.813538%, 89.808655%, 91.53595%)" offset="0.53125"/><stop stop-opacity="1" stop-color="rgb(45.368958%, 89.910889%, 91.621399%)" offset="0.535156"/><stop stop-opacity="1" stop-color="rgb(45.925903%, 90.013123%, 91.706848%)" offset="0.539063"/><stop stop-opacity="1" stop-color="rgb(46.481323%, 90.115356%, 91.790771%)" offset="0.542969"/><stop stop-opacity="1" stop-color="rgb(47.038269%, 90.219116%, 91.876221%)" offset="0.546875"/><stop stop-opacity="1" stop-color="rgb(47.593689%, 90.32135%, 91.96167%)" offset="0.550781"/><stop stop-opacity="1" stop-color="rgb(48.150635%, 90.42511%, 92.047119%)" offset="0.554688"/><stop stop-opacity="1" stop-color="rgb(48.706055%, 90.527344%, 92.132568%)" offset="0.558594"/><stop stop-opacity="1" stop-color="rgb(49.261475%, 90.629578%, 92.218018%)" offset="0.5625"/><stop stop-opacity="1" stop-color="rgb(49.816895%, 90.731812%, 92.303467%)" offset="0.566406"/><stop stop-opacity="1" stop-color="rgb(50.37384%, 90.835571%, 92.388916%)" offset="0.570313"/><stop stop-opacity="1" stop-color="rgb(50.92926%, 90.937805%, 92.474365%)" offset="0.574219"/><stop stop-opacity="1" stop-color="rgb(51.486206%, 91.040039%, 92.559814%)" offset="0.578125"/><stop stop-opacity="1" stop-color="rgb(52.041626%, 91.142273%, 92.643738%)" offset="0.582031"/><stop stop-opacity="1" stop-color="rgb(52.598572%, 91.246033%, 92.729187%)" offset="0.585938"/><stop stop-opacity="1" stop-color="rgb(53.153992%, 91.348267%, 92.814636%)" offset="0.589844"/><stop stop-opacity="1" stop-color="rgb(53.710938%, 91.452026%, 92.900085%)" offset="0.59375"/><stop stop-opacity="1" stop-color="rgb(54.266357%, 91.55426%, 92.985535%)" offset="0.597656"/><stop stop-opacity="1" stop-color="rgb(54.823303%, 91.656494%, 93.070984%)" offset="0.601563"/><stop stop-opacity="1" stop-color="rgb(55.378723%, 91.758728%, 93.156433%)" offset="0.605469"/><stop stop-opacity="1" stop-color="rgb(55.935669%, 91.862488%, 93.241882%)" offset="0.609375"/><stop stop-opacity="1" stop-color="rgb(56.491089%, 91.964722%, 93.325806%)" offset="0.613281"/><stop stop-opacity="1" stop-color="rgb(57.046509%, 92.066956%, 93.411255%)" offset="0.617187"/><stop stop-opacity="1" stop-color="rgb(57.601929%, 92.169189%, 93.496704%)" offset="0.621094"/><stop stop-opacity="1" stop-color="rgb(58.158875%, 92.272949%, 93.582153%)" offset="0.625"/><stop stop-opacity="1" stop-color="rgb(58.714294%, 92.375183%, 93.667603%)" offset="0.628906"/><stop stop-opacity="1" stop-color="rgb(59.27124%, 92.478943%, 93.753052%)" offset="0.632812"/><stop stop-opacity="1" stop-color="rgb(59.82666%, 92.581177%, 93.838501%)" offset="0.636719"/><stop stop-opacity="1" stop-color="rgb(60.383606%, 92.683411%, 93.92395%)" offset="0.640625"/><stop stop-opacity="1" stop-color="rgb(60.939026%, 92.785645%, 94.009399%)" offset="0.644531"/><stop stop-opacity="1" stop-color="rgb(61.495972%, 92.889404%, 94.094849%)" offset="0.648437"/><stop stop-opacity="1" stop-color="rgb(62.051392%, 92.991638%, 94.178772%)" offset="0.652344"/><stop stop-opacity="1" stop-color="rgb(62.608337%, 93.093872%, 94.264221%)" offset="0.65625"/><stop stop-opacity="1" stop-color="rgb(63.163757%, 93.196106%, 94.34967%)" offset="0.660156"/><stop stop-opacity="1" stop-color="rgb(63.720703%, 93.299866%, 94.43512%)" offset="0.664062"/><stop stop-opacity="1" stop-color="rgb(64.276123%, 93.4021%, 94.520569%)" offset="0.667969"/><stop stop-opacity="1" stop-color="rgb(64.833069%, 93.505859%, 94.606018%)" offset="0.671875"/><stop stop-opacity="1" stop-color="rgb(65.388489%, 93.608093%, 94.691467%)" offset="0.675781"/><stop stop-opacity="1" stop-color="rgb(65.943909%, 93.710327%, 94.776917%)" offset="0.679688"/><stop stop-opacity="1" stop-color="rgb(66.499329%, 93.812561%, 94.86084%)" offset="0.683594"/><stop stop-opacity="1" stop-color="rgb(67.056274%, 93.916321%, 94.946289%)" offset="0.6875"/><stop stop-opacity="1" stop-color="rgb(67.611694%, 94.018555%, 95.031738%)" offset="0.691406"/><stop stop-opacity="1" stop-color="rgb(68.16864%, 94.120789%, 95.117188%)" offset="0.695312"/><stop stop-opacity="1" stop-color="rgb(68.72406%, 94.223022%, 95.202637%)" offset="0.699219"/><stop stop-opacity="1" stop-color="rgb(69.281006%, 94.326782%, 95.288086%)" offset="0.703125"/><stop stop-opacity="1" stop-color="rgb(69.836426%, 94.429016%, 95.373535%)" offset="0.707031"/><stop stop-opacity="1" stop-color="rgb(70.393372%, 94.532776%, 95.458984%)" offset="0.710937"/><stop stop-opacity="1" stop-color="rgb(70.948792%, 94.63501%, 95.544434%)" offset="0.714844"/><stop stop-opacity="1" stop-color="rgb(71.505737%, 94.737244%, 95.629883%)" offset="0.71875"/><stop stop-opacity="1" stop-color="rgb(72.061157%, 94.839478%, 95.713806%)" offset="0.722656"/><stop stop-opacity="1" stop-color="rgb(72.618103%, 94.943237%, 95.799255%)" offset="0.726562"/><stop stop-opacity="1" stop-color="rgb(73.173523%, 95.045471%, 95.884705%)" offset="0.730469"/><stop stop-opacity="1" stop-color="rgb(73.730469%, 95.147705%, 95.970154%)" offset="0.734375"/><stop stop-opacity="1" stop-color="rgb(74.285889%, 95.249939%, 96.055603%)" offset="0.738281"/><stop stop-opacity="1" stop-color="rgb(74.841309%, 95.353699%, 96.141052%)" offset="0.742187"/><stop stop-opacity="1" stop-color="rgb(75.396729%, 95.455933%, 96.226501%)" offset="0.746094"/><stop stop-opacity="1" stop-color="rgb(75.953674%, 95.559692%, 96.311951%)" offset="0.75"/><stop stop-opacity="1" stop-color="rgb(76.509094%, 95.661926%, 96.3974%)" offset="0.753906"/><stop stop-opacity="1" stop-color="rgb(77.06604%, 95.76416%, 96.482849%)" offset="0.757812"/><stop stop-opacity="1" stop-color="rgb(77.62146%, 95.866394%, 96.566772%)" offset="0.761719"/><stop stop-opacity="1" stop-color="rgb(78.178406%, 95.970154%, 96.652222%)" offset="0.765625"/><stop stop-opacity="1" stop-color="rgb(78.733826%, 96.072388%, 96.737671%)" offset="0.769531"/><stop stop-opacity="1" stop-color="rgb(79.290771%, 96.174622%, 96.82312%)" offset="0.773437"/><stop stop-opacity="1" stop-color="rgb(79.846191%, 96.276855%, 96.908569%)" offset="0.777344"/><stop stop-opacity="1" stop-color="rgb(80.403137%, 96.380615%, 96.994019%)" offset="0.78125"/><stop stop-opacity="1" stop-color="rgb(80.958557%, 96.482849%, 97.079468%)" offset="0.785156"/><stop stop-opacity="1" stop-color="rgb(81.515503%, 96.585083%, 97.164917%)" offset="0.789062"/><stop stop-opacity="1" stop-color="rgb(82.070923%, 96.687317%, 97.24884%)" offset="0.792969"/><stop stop-opacity="1" stop-color="rgb(82.626343%, 96.791077%, 97.33429%)" offset="0.796875"/><stop stop-opacity="1" stop-color="rgb(83.181763%, 96.893311%, 97.419739%)" offset="0.800781"/><stop stop-opacity="1" stop-color="rgb(83.738708%, 96.99707%, 97.505188%)" offset="0.804688"/><stop stop-opacity="1" stop-color="rgb(84.294128%, 97.099304%, 97.590637%)" offset="0.808594"/><stop stop-opacity="1" stop-color="rgb(84.851074%, 97.201538%, 97.676086%)" offset="0.8125"/><stop stop-opacity="1" stop-color="rgb(85.406494%, 97.303772%, 97.761536%)" offset="0.816406"/><stop stop-opacity="1" stop-color="rgb(85.96344%, 97.407532%, 97.846985%)" offset="0.820312"/><stop stop-opacity="1" stop-color="rgb(86.51886%, 97.509766%, 97.932434%)" offset="0.824219"/><stop stop-opacity="1" stop-color="rgb(87.075806%, 97.612%, 98.017883%)" offset="0.828125"/><stop stop-opacity="1" stop-color="rgb(87.631226%, 97.714233%, 98.101807%)" offset="0.832031"/><stop stop-opacity="1" stop-color="rgb(88.188171%, 97.817993%, 98.187256%)" offset="0.835938"/><stop stop-opacity="1" stop-color="rgb(88.743591%, 97.920227%, 98.272705%)" offset="0.839844"/><stop stop-opacity="1" stop-color="rgb(89.300537%, 98.023987%, 98.358154%)" offset="0.84375"/><stop stop-opacity="1" stop-color="rgb(89.855957%, 98.126221%, 98.443604%)" offset="0.847656"/><stop stop-opacity="1" stop-color="rgb(90.412903%, 98.228455%, 98.529053%)" offset="0.851563"/><stop stop-opacity="1" stop-color="rgb(90.968323%, 98.330688%, 98.614502%)" offset="0.855469"/><stop stop-opacity="1" stop-color="rgb(91.523743%, 98.434448%, 98.699951%)" offset="0.859375"/><stop stop-opacity="1" stop-color="rgb(92.079163%, 98.536682%, 98.783875%)" offset="0.863281"/><stop stop-opacity="1" stop-color="rgb(92.636108%, 98.638916%, 98.869324%)" offset="0.867187"/><stop stop-opacity="1" stop-color="rgb(93.191528%, 98.74115%, 98.954773%)" offset="0.871094"/><stop stop-opacity="1" stop-color="rgb(93.748474%, 98.84491%, 99.040222%)" offset="0.875"/><stop stop-opacity="1" stop-color="rgb(94.303894%, 98.947144%, 99.125671%)" offset="0.878906"/><stop stop-opacity="1" stop-color="rgb(94.86084%, 99.050903%, 99.211121%)" offset="0.882812"/><stop stop-opacity="1" stop-color="rgb(95.41626%, 99.153137%, 99.29657%)" offset="0.886719"/><stop stop-opacity="1" stop-color="rgb(95.973206%, 99.255371%, 99.382019%)" offset="0.890625"/><stop stop-opacity="1" stop-color="rgb(96.528625%, 99.357605%, 99.467468%)" offset="0.894531"/><stop stop-opacity="1" stop-color="rgb(97.085571%, 99.461365%, 99.552917%)" offset="0.898438"/><stop stop-opacity="1" stop-color="rgb(97.640991%, 99.563599%, 99.636841%)" offset="0.902344"/><stop stop-opacity="1" stop-color="rgb(98.197937%, 99.665833%, 99.72229%)" offset="0.90625"/><stop stop-opacity="1" stop-color="rgb(98.753357%, 99.768066%, 99.807739%)" offset="0.910156"/><stop stop-opacity="1" stop-color="rgb(99.308777%, 99.871826%, 99.893188%)" offset="0.914062"/><stop stop-opacity="1" stop-color="rgb(99.653625%, 99.935913%, 99.946594%)" offset="0.917969"/><stop stop-opacity="1" stop-color="rgb(100%, 100%, 100%)" offset="0.921875"/><stop stop-opacity="1" stop-color="rgb(100%, 100%, 100%)" offset="0.9375"/><stop stop-opacity="1" stop-color="rgb(100%, 100%, 100%)" offset="1"/></linearGradient><clipPath id="c9be36b794"><rect x="0" width="859" y="0" height="375"/></clipPath></defs><g mask="url(#d03bf56b5e)"><g transform="matrix(1, 0, 0, 1, 581, 0)"><g clip-path="url(#c9be36b794)"><g clip-path="url(#3a1fef54a7)"><g clip-path="url(#932a3e9e61)"><g clip-path="url(#b0dd78678e)"><g clip-path="url(#0341117473)"><path fill="url(#b5cef68ae8)" d="M 1025.269531 274.160156 L 678.082031 -298.3125 L 19.929688 100.839844 L 367.117188 673.3125 Z M 1025.269531 274.160156 " fill-rule="nonzero"/></g></g></g></g></g></g></g></svg>