<?xml version="1.0" standalone="no"?>
<!DOCTYPE svg PUBLIC "-//W3C//DTD SVG 20010904//EN"
 "http://www.w3.org/TR/2001/REC-SVG-20010904/DTD/svg10.dtd">
<svg version="1.0" xmlns="http://www.w3.org/2000/svg"
 width="1274.000000pt" height="1280.000000pt" viewBox="0 0 1274.000000 1280.000000"
 preserveAspectRatio="xMidYMid meet">
<metadata>
Created by potrace 1.15, written by Peter Selinger 2001-2017
</metadata>
<g transform="translate(0.000000,1280.000000) scale(0.100000,-0.100000)"
fill="#000000" stroke="none">
<path d="M490 12790 c-173 -30 -345 -161 -425 -322 -71 -146 -65 414 -63
-6105 l3 -5888 26 -67 c80 -206 241 -348 441 -393 66 -14 602 -15 5933 -13
l5860 3 67 26 c207 81 348 240 394 446 30 134 4 294 -67 419 -88 156 -260 270
-441 294 -45 6 -2175 10 -5545 10 l-5473 0 0 2434 0 2435 58 11 c70 15 104 31
162 80 l46 38 -23 -47 c-63 -128 -47 -277 43 -398 35 -46 668 -531 734 -562
47 -22 69 -26 150 -26 81 0 103 4 150 26 31 14 73 41 93 58 l37 33 -27 -59
c-55 -117 -39 -263 41 -371 35 -47 637 -518 721 -564 130 -70 305 -47 421 54
33 29 35 30 21 8 -31 -49 -48 -114 -48 -191 0 -98 27 -171 87 -238 37 -41 543
-441 672 -530 45 -31 143 -61 200 -61 50 0 132 19 172 40 14 7 45 29 70 50
l45 37 -29 -58 c-66 -135 -35 -310 76 -416 73 -70 387 -305 448 -336 54 -27
78 -33 147 -36 82 -3 83 -2 250 64 92 37 188 78 213 90 74 38 136 100 172 173
30 60 33 75 33 157 0 49 -4 99 -8 110 -8 19 -7 19 5 1 101 -148 238 -213 388
-186 55 10 693 265 806 323 137 70 219 231 194 384 -6 32 -10 60 -10 62 0 3
13 -16 29 -41 38 -60 117 -121 183 -144 33 -11 81 -18 128 -18 85 1 84 1 585
209 290 120 337 145 386 204 71 86 109 239 80 322 -14 42 -7 49 12 12 43 -82
153 -155 262 -173 82 -13 158 5 338 80 82 34 150 60 152 58 1 -2 26 -32 54
-68 106 -132 190 -174 336 -168 73 3 100 9 145 32 l55 27 -36 -38 c-49 -52
-65 -80 -85 -149 -23 -79 -15 -183 20 -255 36 -76 494 -675 555 -725 74 -63
147 -86 251 -82 67 2 96 9 138 29 28 14 52 25 52 23 0 -1 -14 -18 -30 -36 -57
-61 -85 -133 -88 -228 -5 -108 17 -170 97 -278 70 -94 118 -137 191 -171 48
-23 68 -26 155 -26 91 0 105 3 158 29 69 35 150 118 179 183 15 34 23 75 26
138 5 111 -14 168 -90 270 -78 103 -122 143 -196 178 -58 27 -78 31 -152 31
-71 1 -94 -4 -142 -26 l-56 -26 35 46 c48 63 71 120 79 195 8 76 -13 167 -52
229 -59 93 -505 667 -539 692 -125 96 -286 109 -414 34 l-35 -19 38 42 c21 23
50 67 65 98 22 48 26 69 26 151 -1 121 -14 152 -142 320 l-96 128 -2 75 c-2
107 -34 184 -108 260 -31 33 -49 56 -40 52 46 -17 120 -27 165 -21 94 13 158
45 223 110 53 54 81 102 248 418 104 197 195 379 204 405 38 123 -7 273 -109
368 l-58 54 42 -16 c25 -9 74 -15 118 -15 102 0 174 28 248 97 52 48 75 85
254 421 108 203 202 390 208 416 34 133 -13 285 -113 373 l-52 46 39 -16 c50
-21 176 -21 236 0 58 20 142 78 173 118 38 50 309 566 329 626 75 228 -112
481 -357 481 -103 0 -207 -49 -276 -129 -54 -63 -335 -590 -350 -657 -29 -129
13 -267 108 -354 30 -28 53 -50 51 -50 -3 0 -26 7 -52 16 -117 40 -280 -7
-368 -105 -45 -50 -397 -697 -431 -794 -50 -140 2 -326 114 -407 23 -16 40
-30 38 -30 -2 0 -26 7 -53 15 -132 40 -281 -4 -376 -112 -55 -63 -421 -750
-438 -822 -32 -139 11 -269 120 -366 51 -44 51 -45 18 -31 -19 7 -55 17 -80
21 -25 4 -65 18 -90 31 -101 53 -221 54 -325 3 l-60 -30 36 38 c48 52 65 80
85 148 23 80 16 183 -18 256 -25 53 -456 628 -527 702 -99 104 -265 143 -388
92 -33 -14 -35 -14 -28 3 4 9 15 46 23 81 47 203 -114 418 -330 437 -46 4
-167 -8 -448 -46 -212 -28 -403 -56 -425 -61 -145 -38 -258 -170 -275 -324 -4
-33 -8 -53 -9 -45 -3 35 -53 123 -95 168 -25 27 -71 61 -103 77 -92 45 -160
44 -568 -9 -426 -56 -445 -60 -518 -99 -100 -53 -168 -149 -189 -269 l-11 -63
-12 36 c-43 122 -151 213 -287 240 -55 11 -129 4 -533 -51 -38 -6 -137 -19
-220 -31 -154 -21 -245 -50 -281 -90 -25 -28 -31 -24 -48 29 -20 59 -48 95
-329 430 -283 337 -308 359 -441 383 -81 15 -165 2 -235 -37 -57 -32 -61 -30
-23 9 37 38 69 106 82 178 13 65 -2 153 -36 224 -29 62 -527 657 -586 702
-114 86 -289 100 -405 33 -18 -11 -33 -18 -33 -16 0 2 13 20 30 41 51 65 73
138 68 235 -6 130 -22 155 -298 485 -298 356 -309 368 -390 408 -60 30 -72 32
-165 32 -93 0 -104 -2 -158 -32 l-57 -31 30 38 c95 119 106 303 26 429 -13 20
-80 103 -149 186 l-126 150 -4 955 c-3 1054 1 985 -68 1126 -47 96 -158 206
-259 257 -118 59 -252 79 -380 57z m863 -3264 c-61 -69 -78 -120 -78 -236 0
-94 3 -111 27 -160 28 -55 507 -638 571 -693 83 -73 214 -110 314 -88 32 7 78
24 102 37 56 31 60 30 30 -3 -91 -100 -116 -267 -57 -394 27 -59 507 -641 581
-704 113 -97 274 -115 412 -44 l60 30 -32 -33 c-18 -18 -45 -60 -60 -93 -24
-52 -28 -72 -28 -150 0 -139 15 -163 329 -536 278 -331 312 -364 412 -394 107
-33 246 -9 325 55 21 16 40 30 42 30 2 0 10 -19 17 -42 28 -95 103 -178 203
-223 92 -42 127 -41 577 19 384 51 419 58 476 86 116 57 204 184 207 302 1 25
5 44 10 41 4 -2 7 -10 7 -16 0 -7 11 -34 24 -62 56 -120 193 -205 329 -205 46
0 536 62 757 95 210 32 337 152 357 336 l6 64 16 -45 c25 -70 46 -102 98 -151
124 -116 176 -120 693 -50 206 28 390 55 409 61 19 5 37 8 39 5 3 -2 -2 -19
-9 -37 -8 -20 -14 -67 -13 -118 0 -70 5 -95 26 -142 27 -59 475 -652 544 -721
21 -20 63 -50 93 -65 50 -24 67 -27 161 -27 96 0 110 3 160 28 l55 28 -37 -38
c-20 -21 -49 -65 -65 -98 -24 -52 -28 -73 -28 -154 l-1 -94 -93 -41 c-113 -50
-176 -104 -221 -187 -33 -60 -35 -70 -35 -159 0 -52 4 -106 8 -120 5 -14 -4
-5 -20 20 -81 125 -222 189 -370 169 -39 -5 -178 -58 -418 -157 -198 -82 -378
-158 -400 -169 -56 -29 -131 -113 -162 -180 -28 -60 -36 -160 -20 -232 7 -35
7 -35 -24 12 -77 116 -221 178 -362 156 -53 -9 -130 -38 -552 -214 -88 -36
-178 -73 -200 -82 -108 -44 -184 -114 -227 -210 -18 -38 -23 -67 -23 -138 0
-49 4 -101 8 -115 5 -14 -4 -5 -20 20 -39 59 -94 107 -163 139 -48 23 -68 26
-155 26 -86 -1 -109 -4 -164 -28 l-64 -27 -101 76 c-144 109 -189 129 -301
129 -80 0 -97 -4 -155 -31 -36 -17 -80 -46 -99 -65 l-33 -34 25 51 c37 73 48
155 33 235 -26 136 -51 163 -411 441 -173 134 -343 259 -377 278 -61 34 -67
35 -168 35 -120 0 -168 -16 -239 -80 -46 -42 -49 -41 -22 7 27 45 45 148 38
210 -7 59 -53 159 -94 204 -26 29 -613 487 -674 526 -43 27 -145 58 -191 58
-89 0 -182 -36 -249 -97 l-39 -35 28 58 c24 52 27 71 27 159 0 88 -3 106 -27
155 -15 30 -49 76 -75 102 -76 74 -642 506 -703 535 -48 24 -67 27 -155 28
-91 0 -105 -3 -155 -29 -30 -15 -72 -44 -93 -65 l-38 -36 25 50 c70 136 50
303 -49 412 -23 27 -93 87 -154 133 l-111 85 0 1292 0 1293 28 6 c40 9 102 33
126 50 31 21 31 17 -1 -20z"/>
</g>
</svg>
