<?xml version="1.0" encoding="UTF-8"?>
<svg xmlns="http://www.w3.org/2000/svg" xmlns:xlink="http://www.w3.org/1999/xlink" width="25px" height="25px" viewBox="0 0 25 25" version="1.1">
<g id="surface1">
<path style=" stroke:none;fill-rule:nonzero;fill:rgb(17.647059%,74.117647%,58.823529%);fill-opacity:1;" d="M 6.25 1.875 L 18.75 1.875 C 21.167969 1.875 23.125 3.832031 23.125 6.25 L 23.125 18.75 C 23.125 21.167969 21.167969 23.125 18.75 23.125 L 6.25 23.125 C 3.832031 23.125 1.875 21.167969 1.875 18.75 L 1.875 6.25 C 1.875 3.832031 3.832031 1.875 6.25 1.875 Z M 6.25 1.875 "/>
<path style=" stroke:none;fill-rule:evenodd;fill:rgb(100%,100%,100%);fill-opacity:1;" d="M 10.003906 12.1875 L 13.855469 16.078125 L 16.289062 13.625 C 16.722656 13.226562 17.386719 13.246094 17.800781 13.664062 C 18.214844 14.082031 18.230469 14.75 17.839844 15.191406 L 14.632812 18.429688 C 14.199219 18.855469 13.511719 18.855469 13.078125 18.429688 L 8.449219 13.757812 L 8.449219 16.535156 C 8.449219 17.148438 7.957031 17.644531 7.351562 17.644531 C 6.742188 17.644531 6.25 17.148438 6.25 16.535156 L 6.25 7.839844 C 6.25 7.226562 6.742188 6.730469 7.351562 6.730469 C 7.957031 6.730469 8.449219 7.226562 8.449219 7.839844 L 8.449219 10.617188 L 13.078125 5.945312 C 13.507812 5.519531 14.199219 5.519531 14.632812 5.945312 L 17.84375 9.183594 C 18.234375 9.621094 18.214844 10.292969 17.804688 10.710938 C 17.390625 11.128906 16.722656 11.148438 16.289062 10.75 L 13.859375 8.296875 Z M 13.859375 11.078125 C 13.414062 11.078125 13.011719 11.347656 12.839844 11.761719 C 12.667969 12.179688 12.765625 12.65625 13.078125 12.972656 C 13.394531 13.292969 13.867188 13.386719 14.277344 13.214844 C 14.691406 13.042969 14.957031 12.636719 14.957031 12.1875 C 14.957031 11.894531 14.84375 11.613281 14.636719 11.402344 C 14.429688 11.195312 14.148438 11.078125 13.859375 11.078125 Z M 13.859375 11.078125 "/>
</g>
</svg>
