<?xml version="1.0" encoding="UTF-8"?>
<svg xmlns="http://www.w3.org/2000/svg" xmlns:xlink="http://www.w3.org/1999/xlink" width="25px" height="25px" viewBox="0 0 25 25" version="1.1">
<g id="surface1">
<path style=" stroke:none;fill-rule:nonzero;fill:rgb(13.333334%,90.196079%,72.156864%);fill-opacity:1;" d="M 25 12.5 C 25 5.597656 19.402344 0 12.5 0 C 5.597656 0 0 5.597656 0 12.5 C 0 19.402344 5.597656 25 12.5 25 C 19.402344 25 25 19.402344 25 12.5 Z M 25 12.5 "/>
<path style=" stroke:none;fill-rule:nonzero;fill:rgb(100%,100%,100%);fill-opacity:1;" d="M 14.546875 10.863281 C 13.589844 9.917969 12.050781 9.917969 11.089844 10.863281 C 10.136719 11.820312 10.152344 13.382812 11.101562 14.34375 C 12.050781 15.300781 13.605469 15.3125 14.5625 14.355469 C 14.578125 14.339844 14.644531 14.265625 14.765625 14.136719 L 13.617188 12.976562 C 13.503906 13.117188 13.433594 13.1875 13.429688 13.1875 C 13.273438 13.34375 13.0625 13.433594 12.839844 13.433594 C 12.621094 13.433594 12.410156 13.34375 12.253906 13.1875 C 11.929688 12.863281 11.929688 12.332031 12.242188 12.015625 C 12.554688 11.699219 13.082031 11.699219 13.410156 12.023438 L 16.488281 15.113281 C 15.644531 16.339844 14.230469 17.113281 12.710938 17.113281 C 10.1875 17.113281 8.140625 15.046875 8.140625 12.492188 C 8.140625 9.941406 10.191406 7.878906 12.710938 7.878906 C 14.160156 7.878906 15.523438 8.574219 16.371094 9.75 C 16.238281 9.90625 15.890625 10.300781 15.332031 10.941406 L 16.472656 12.078125 L 18.355469 9.941406 C 17.375 7.71875 15.171875 6.246094 12.703125 6.246094 C 9.285156 6.246094 6.507812 9.050781 6.507812 12.496094 C 6.507812 15.945312 9.277344 18.753906 12.703125 18.753906 C 14.257812 18.753906 15.546875 18.261719 16.804688 17.183594 C 17.945312 16.207031 18.488281 14.851562 18.488281 14.851562 Z M 14.546875 10.863281 "/>
</g>
</svg>
