<?xml version="1.0" encoding="iso-8859-1"?>
<!-- Uploaded to: SVG Repo, www.svgrepo.com, Generator: SVG Repo Mixer Tools -->
<!DOCTYPE svg PUBLIC "-//W3C//DTD SVG 1.1//EN" "http://www.w3.org/Graphics/SVG/1.1/DTD/svg11.dtd">
<svg fill="#000000" height="800px" width="800px" version="1.1" id="Capa_1" xmlns="http://www.w3.org/2000/svg" xmlns:xlink="http://www.w3.org/1999/xlink" 
	 viewBox="0 0 186.076 186.076" xml:space="preserve">
<g>
	<path d="M93.038,0C41.737,0,0,41.737,0,93.038s41.737,93.038,93.038,93.038s93.038-41.737,93.038-93.038S144.339,0,93.038,0z
		 M93.038,176.076C47.25,176.076,10,138.826,10,93.038S47.25,10,93.038,10s83.038,37.25,83.038,83.038
		S138.826,176.076,93.038,176.076z"/>
	<path d="M93.038,19.341c-40.637,0-73.697,33.061-73.697,73.697s33.061,73.697,73.697,73.697s73.697-33.061,73.697-73.697
		S133.675,19.341,93.038,19.341z M93.038,160.735c-37.329,0-67.697-30.369-67.697-67.697s30.369-67.697,67.697-67.697
		s67.697,30.369,67.697,67.697S130.367,160.735,93.038,160.735z"/>
	<path d="M59.875,104.51l3.277-2.731c5.19-4.589,9.451-9.342,9.451-15.351c0-6.392-4.371-11.09-12.456-11.09
		c-4.752,0-8.959,1.639-11.581,3.66l2.349,5.9c1.858-1.366,4.535-2.895,7.594-2.895c4.097,0,5.791,2.294,5.791,5.189
		c-0.055,4.152-3.825,8.14-11.637,15.133l-4.534,4.097v5.026h25.184v-6.829H59.875V104.51z"/>
	<path d="M100.959,75.939H90.744L77.359,97.573v5.408h15.733v8.468h7.866v-8.468h4.207v-6.228h-4.207V75.939z M93.093,88.886v7.867
		h-8.031l0.055-0.109l4.698-7.758c1.202-2.24,2.185-4.316,3.332-6.611h0.164C93.202,84.571,93.093,86.756,93.093,88.886z"/>
	<polygon points="133.139,90.033 115.33,90.033 115.33,74.628 110.522,74.628 110.522,111.448 115.33,111.448 115.33,94.185 
		133.139,94.185 133.139,111.448 137.946,111.448 137.946,74.628 133.139,74.628 	"/>
</g>
</svg>