<svg xmlns="http://www.w3.org/2000/svg" xmlns:xlink="http://www.w3.org/1999/xlink" width="300" zoomAndPan="magnify" viewBox="0 0 224.87999 60" height="80" preserveAspectRatio="xMidYMid meet" version="1.0"><defs><g/><clipPath id="f43a79831c"><path d="M 3.746094 0.207031 L 40.953125 0.207031 L 40.953125 50 L 3.746094 50 Z M 3.746094 0.207031 " clip-rule="nonzero"/></clipPath><clipPath id="11f6b4126e"><path d="M 8.082031 3 L 40.953125 3 L 40.953125 57.878906 L 8.082031 57.878906 Z M 8.082031 3 " clip-rule="nonzero"/></clipPath><clipPath id="b24741d482"><path d="M 3.746094 3 L 34 3 L 34 57.878906 L 3.746094 57.878906 Z M 3.746094 3 " clip-rule="nonzero"/></clipPath></defs><g clip-path="url(#f43a79831c)"><path fill="#d4d4d4" d="M 13.875 8.058594 L 8.835938 11.035156 L 3.746094 8.058594 L 8.835938 5.078125 Z M 21.835938 6.160156 L 16.746094 3.183594 L 21.835938 0.207031 L 26.875 3.183594 Z M 16.960938 22.464844 L 9.378906 18.019531 L 9.324219 18.019531 C 9.324219 17.984375 9.34375 17.96875 9.378906 17.96875 L 16.960938 13.527344 L 24.542969 17.96875 L 24.597656 17.96875 Z M 20.210938 43.527344 L 15.121094 40.550781 L 20.210938 37.570312 L 25.25 40.550781 Z M 3.746094 27.550781 L 8.835938 24.574219 L 9.378906 24.898438 L 9.378906 26.46875 L 12.492188 28.363281 L 8.835938 30.53125 Z M 40.84375 44.777344 L 33.207031 49.269531 L 25.625 44.828125 L 25.574219 44.828125 C 25.574219 44.789062 25.589844 44.777344 25.625 44.777344 L 30.472656 41.933594 L 30.769531 42.117188 L 33.476562 40.496094 L 40.789062 44.777344 Z M 30.769531 30.636719 L 20.644531 24.679688 L 24.597656 22.351562 L 27.386719 20.726562 L 32.394531 23.761719 L 35.832031 21.675781 L 40.953125 24.679688 Z M 40.03125 10.660156 L 32.394531 15.152344 L 24.8125 10.710938 L 24.761719 10.710938 C 24.761719 10.671875 24.777344 10.660156 24.8125 10.660156 L 32.394531 6.21875 L 39.976562 10.660156 L 40.03125 10.660156 " fill-opacity="1" fill-rule="evenodd"/></g><g clip-path="url(#11f6b4126e)"><path fill="#b8cde8" d="M 8.835938 11.035156 L 13.875 8.058594 L 13.875 13.6875 L 8.835938 16.777344 Z M 20.210938 49.269531 L 20.210938 43.527344 L 25.25 40.550781 L 25.25 46.179688 Z M 21.835938 11.902344 L 21.835938 6.160156 L 26.875 3.183594 L 26.875 8.816406 Z M 8.835938 36.273438 L 8.835938 30.53125 L 12.492188 28.363281 L 13.875 29.207031 L 13.875 33.183594 Z M 16.960938 22.464844 L 24.597656 17.96875 L 24.597656 22.351562 L 20.644531 24.679688 L 20.644531 28.851562 L 16.960938 31.074219 Z M 33.207031 49.269531 L 40.84375 44.777344 L 40.84375 53.273438 L 33.207031 57.878906 Z M 30.769531 30.636719 L 40.953125 24.679688 L 40.953125 35.945312 L 33.476562 40.496094 L 30.769531 42.117188 Z M 35.832031 21.675781 L 32.394531 23.761719 L 32.394531 15.152344 L 40.03125 10.660156 L 40.03125 19.160156 L 35.832031 21.675781 " fill-opacity="1" fill-rule="evenodd"/></g><g clip-path="url(#b24741d482)"><path fill="#68a6ed" d="M 8.835938 11.035156 L 8.835938 16.777344 L 3.746094 13.6875 L 3.746094 8.058594 Z M 21.835938 11.902344 L 16.746094 8.816406 L 16.746094 3.183594 L 21.835938 6.160156 Z M 32.394531 23.761719 L 27.386719 20.726562 L 24.8125 19.160156 L 24.8125 10.710938 L 32.394531 15.152344 Z M 3.746094 27.550781 L 8.835938 30.53125 L 8.835938 36.273438 L 3.746094 33.183594 Z M 15.121094 40.550781 L 20.210938 43.527344 L 20.210938 49.269531 L 15.121094 46.179688 Z M 9.378906 18.019531 L 16.960938 22.464844 L 16.960938 31.074219 L 13.875 29.207031 L 12.492188 28.363281 L 9.378906 26.46875 Z M 20.644531 24.679688 L 30.769531 30.636719 L 30.769531 42.117188 L 30.472656 41.933594 L 20.644531 35.945312 Z M 25.625 44.828125 L 33.207031 49.269531 L 33.207031 57.878906 L 25.625 53.273438 L 25.625 44.828125 " fill-opacity="1" fill-rule="evenodd"/></g><g fill="#ffffff" fill-opacity="1"><g transform="translate(49.257529, 39.404653)"><g><path d="M 1.910156 -11.515625 C 1.882812 -11.171875 1.625 -11 1.625 -11 C 1.625 -11 1.882812 -10.800781 1.882812 -10.488281 C 1.882812 -8.152344 1.851562 -5.128906 1.851562 -4.191406 L 0.828125 -4.246094 C 0.683594 -4.246094 0.570312 -4.132812 0.570312 -3.988281 L 0.570312 -0.3125 C 0.570312 -0.171875 0.683594 -0.0585938 0.828125 -0.0585938 L 6.097656 0.113281 C 8.179688 0.140625 10.316406 0.0859375 11.371094 -0.0585938 C 12.570312 -0.511719 14.308594 -1.738281 15.246094 -2.679688 C 15.617188 -4.644531 15.617188 -9.519531 15.246094 -10.660156 C 14.960938 -10.945312 14.648438 -11.257812 14.335938 -11.542969 C 14.648438 -11.800781 14.960938 -12.082031 15.277344 -12.3125 C 15.589844 -15.277344 15.363281 -16.671875 15.105469 -19.039062 C 15.105469 -19.039062 13.195312 -21.203125 11.3125 -22 C 8.519531 -22.488281 0.96875 -22 0.96875 -22 C 0.828125 -22 0.710938 -21.886719 0.710938 -21.773438 L 0.710938 -18.070312 C 0.710938 -17.953125 0.828125 -17.839844 0.96875 -17.839844 L 1.882812 -17.871094 C 1.882812 -17.128906 1.910156 -15.246094 1.910156 -13.453125 Z M 10.972656 -14.820312 C 10.429688 -14.390625 9.492188 -13.9375 9.148438 -13.851562 C 8.40625 -13.765625 6.753906 -13.765625 6.128906 -13.851562 C 6.097656 -13.90625 6.269531 -13.992188 6.269531 -14.105469 C 6.214844 -15.105469 6.242188 -16.558594 6.269531 -17.441406 C 6.269531 -17.527344 6.15625 -17.554688 6.15625 -17.667969 C 6.867188 -17.726562 8.351562 -17.8125 9.148438 -17.667969 C 9.746094 -17.441406 10.375 -17.128906 10.972656 -16.617188 C 11.113281 -16.386719 11.085938 -15.078125 10.972656 -14.820312 Z M 11.058594 -5.585938 C 10.144531 -4.816406 9.691406 -4.617188 9.0625 -4.332031 C 8.007812 -4.191406 6.753906 -4.21875 6.011719 -4.390625 C 6.011719 -4.503906 6.15625 -4.53125 6.128906 -4.644531 C 6.097656 -5.5 6.097656 -8.066406 6.128906 -9.089844 C 6.15625 -9.207031 5.984375 -9.261719 5.984375 -9.347656 C 6.582031 -9.574219 8.40625 -9.492188 9.148438 -9.375 C 9.691406 -9.121094 10.628906 -8.605469 11.058594 -8.238281 C 11.171875 -7.980469 11.199219 -5.898438 11.058594 -5.585938 Z M 11.058594 -5.585938 "/></g></g></g><g fill="#ffffff" fill-opacity="1"><g transform="translate(68.978106, 39.404653)"><g><path d="M 14.648438 -6.097656 C 14.648438 -6.296875 14.476562 -6.46875 14.277344 -6.46875 L 10.574219 -6.46875 C 10.402344 -6.46875 10.316406 -6.355469 10.316406 -6.214844 C 10.316406 -6.214844 10.316406 -5.472656 10.34375 -4.417969 C 10.34375 -4.390625 10.34375 -4.390625 10.316406 -4.390625 C 7.921875 -4.390625 6.214844 -4.503906 5.984375 -4.53125 L 5.984375 -10.460938 C 5.984375 -10.800781 6.242188 -11 6.242188 -11 C 6.242188 -11 5.984375 -11.171875 5.984375 -11.542969 L 5.984375 -17.753906 L 6.699219 -17.753906 C 6.839844 -17.753906 6.953125 -17.871094 6.953125 -18.011719 L 6.953125 -21.71875 C 6.953125 -21.917969 6.753906 -22.085938 6.582031 -22.085938 C 6.582031 -22.085938 5.101562 -22.203125 3.703125 -22.203125 C 1.882812 -22.203125 0.742188 -22.03125 0.742188 -22.03125 C 0.65625 -22.03125 0.570312 -21.945312 0.570312 -21.832031 L 0.570312 -17.925781 C 0.570312 -17.8125 0.65625 -17.726562 0.742188 -17.726562 L 1.539062 -17.726562 L 1.539062 -11.515625 C 1.539062 -11.171875 1.28125 -11 1.28125 -11 C 1.28125 -11 1.539062 -10.800781 1.539062 -10.460938 L 1.539062 -0.769531 C 1.539062 -0.398438 1.824219 -0.113281 2.164062 -0.113281 C 5.414062 0.113281 10.972656 0.140625 14.449219 -0.0859375 L 14.449219 -0.113281 C 14.535156 -0.140625 14.59375 -0.199219 14.59375 -0.257812 C 14.59375 -0.257812 14.761719 -1.425781 14.761719 -3.21875 C 14.761719 -4.617188 14.648438 -6.097656 14.648438 -6.097656 Z M 14.648438 -6.097656 "/></g></g></g><g fill="#ffffff" fill-opacity="1"><g transform="translate(87.929272, 39.404653)"><g><path d="M 8.066406 -22.828125 C 5.898438 -22.828125 0.65625 -18.980469 0.65625 -18.980469 C 0.65625 -18.980469 0.882812 -18.667969 0.855469 -18.554688 C 0.457031 -15.476562 0.457031 -6.242188 0.855469 -2.933594 C 0.855469 -2.792969 0.65625 -2.507812 0.65625 -2.507812 C 0.65625 -2.507812 6.011719 0.511719 8.066406 0.511719 C 10.117188 0.511719 15.476562 -2.507812 15.476562 -2.507812 C 15.476562 -2.507812 15.277344 -2.792969 15.277344 -2.933594 C 15.675781 -6.242188 15.675781 -15.476562 15.277344 -18.554688 C 15.246094 -18.667969 15.417969 -18.980469 15.417969 -18.980469 C 15.417969 -18.980469 10.203125 -22.828125 8.066406 -22.828125 Z M 4.816406 -16.5 C 4.816406 -16.5 6.8125 -17.8125 8.066406 -17.8125 C 9.320312 -17.8125 11.230469 -16.5 11.230469 -16.5 C 11.230469 -16.5 11.113281 -16.300781 11.113281 -16.246094 C 11.285156 -14.390625 11.3125 -7.921875 11.113281 -6.070312 C 11.113281 -5.984375 11.230469 -5.8125 11.230469 -5.8125 C 11.230469 -5.8125 9.320312 -4.503906 8.066406 -4.503906 C 6.8125 -4.503906 4.816406 -5.8125 4.816406 -5.8125 C 4.816406 -5.8125 4.957031 -5.984375 4.929688 -6.070312 C 4.703125 -7.894531 4.730469 -14.390625 4.929688 -16.246094 C 4.957031 -16.332031 4.816406 -16.5 4.816406 -16.5 Z M 4.816406 -16.5 "/></g></g></g><g fill="#ffffff" fill-opacity="1"><g transform="translate(107.678342, 39.404653)"><g><path d="M 15.277344 -2.878906 C 15.277344 -4.074219 15.5625 -6.070312 15.5625 -8.238281 C 15.5625 -8.292969 15.503906 -8.351562 15.445312 -8.351562 L 11.34375 -8.351562 C 11.285156 -8.351562 11.230469 -8.292969 11.230469 -8.238281 C 11.230469 -7.867188 11.113281 -6.414062 11.113281 -5.929688 C 11.113281 -5.871094 11.230469 -5.699219 11.230469 -5.699219 C 11.230469 -5.699219 9.320312 -4.390625 8.066406 -4.390625 C 6.8125 -4.390625 4.816406 -5.699219 4.816406 -5.699219 C 4.816406 -5.699219 4.929688 -5.871094 4.929688 -5.929688 C 4.703125 -7.835938 4.644531 -14.535156 4.929688 -16.300781 C 4.929688 -16.359375 4.816406 -16.53125 4.816406 -16.53125 C 4.816406 -16.53125 6.8125 -17.839844 8.066406 -17.839844 C 9.320312 -17.839844 11.230469 -16.53125 11.230469 -16.53125 C 11.230469 -16.53125 11.113281 -16.359375 11.113281 -16.300781 C 11.113281 -15.789062 11.230469 -14.507812 11.230469 -13.992188 C 11.230469 -13.9375 11.285156 -13.878906 11.34375 -13.878906 L 15.445312 -13.878906 C 15.503906 -13.878906 15.53125 -13.9375 15.53125 -13.992188 C 15.53125 -15.875 15.53125 -17.554688 15.277344 -18.523438 C 15.246094 -18.640625 15.417969 -18.953125 15.417969 -18.953125 C 15.417969 -18.953125 10.203125 -22.65625 8.066406 -22.65625 C 5.898438 -22.65625 0.65625 -18.953125 0.65625 -18.953125 C 0.65625 -18.953125 0.882812 -18.667969 0.855469 -18.554688 C 0.113281 -15.589844 0.511719 -6.128906 0.855469 -2.878906 C 0.855469 -2.792969 0.65625 -2.480469 0.65625 -2.480469 C 0.65625 -2.480469 6.011719 0.425781 8.066406 0.425781 C 10.117188 0.425781 15.476562 -2.480469 15.476562 -2.480469 C 15.476562 -2.480469 15.277344 -2.792969 15.277344 -2.878906 Z M 15.277344 -2.878906 "/></g></g></g><g fill="#ffffff" fill-opacity="1"><g transform="translate(127.427411, 39.404653)"><g><path d="M 8.378906 -0.199219 C 8.378906 -0.0859375 8.464844 0 8.550781 0 C 8.550781 0 9.691406 0.171875 11.515625 0.171875 C 12.910156 0.171875 14.390625 0.0585938 14.390625 0.0585938 C 14.59375 0.0585938 14.761719 -0.113281 14.761719 -0.3125 L 14.761719 -4.019531 C 14.761719 -4.160156 14.648438 -4.273438 14.507812 -4.273438 L 13.792969 -4.273438 L 13.792969 -6.070312 C 13.792969 -6.414062 14.050781 -6.613281 14.050781 -6.613281 C 14.050781 -6.613281 13.792969 -6.78125 13.792969 -7.125 L 13.792969 -8.804688 L 11.144531 -11.34375 L 13.792969 -13.851562 L 13.792969 -15.277344 C 13.792969 -15.617188 14.050781 -15.816406 14.050781 -15.816406 C 14.050781 -15.816406 13.792969 -15.988281 13.792969 -16.332031 L 13.792969 -17.753906 L 14.507812 -17.753906 C 14.648438 -17.753906 14.761719 -17.871094 14.761719 -18.011719 L 14.761719 -21.71875 C 14.761719 -21.917969 14.59375 -22.085938 14.390625 -22.085938 C 14.390625 -22.085938 12.910156 -22.203125 11.515625 -22.203125 C 9.691406 -22.203125 8.550781 -22.03125 8.550781 -22.03125 C 8.464844 -22.03125 8.378906 -21.945312 8.378906 -21.832031 L 8.378906 -17.925781 C 8.378906 -17.8125 8.464844 -17.726562 8.550781 -17.726562 L 9.347656 -17.726562 L 9.347656 -15.730469 L 5.984375 -12.570312 L 5.984375 -17.753906 L 6.699219 -17.753906 C 6.839844 -17.753906 6.953125 -17.871094 6.953125 -18.011719 L 6.953125 -21.71875 C 6.953125 -21.917969 6.78125 -22.085938 6.582031 -22.085938 C 6.582031 -22.085938 5.101562 -22.203125 3.703125 -22.203125 C 1.882812 -22.203125 0.742188 -22.03125 0.742188 -22.03125 C 0.65625 -22.03125 0.570312 -21.945312 0.570312 -21.832031 L 0.570312 -17.925781 C 0.570312 -17.8125 0.65625 -17.726562 0.742188 -17.726562 C 0.742188 -17.726562 1.027344 -17.726562 1.539062 -17.753906 L 1.539062 -4.273438 C 1.027344 -4.304688 0.742188 -4.304688 0.742188 -4.304688 C 0.65625 -4.304688 0.570312 -4.21875 0.570312 -4.105469 L 0.570312 -0.199219 C 0.570312 -0.0859375 0.65625 0 0.742188 0 C 0.742188 0 1.882812 0.171875 3.703125 0.171875 C 5.101562 0.171875 6.582031 0.0585938 6.582031 0.0585938 C 6.78125 0.0585938 6.953125 -0.113281 6.953125 -0.3125 L 6.953125 -4.019531 C 6.953125 -4.160156 6.839844 -4.273438 6.699219 -4.273438 L 5.984375 -4.273438 L 5.984375 -6.414062 L 7.921875 -8.265625 L 9.347656 -6.925781 L 9.347656 -4.273438 C 8.835938 -4.304688 8.550781 -4.304688 8.550781 -4.304688 C 8.464844 -4.304688 8.378906 -4.21875 8.378906 -4.105469 Z M 8.378906 -0.199219 "/></g></g></g><g fill="#ffffff" fill-opacity="1"><g transform="translate(146.378578, 39.404653)"><g><path d="M 15.277344 -2.878906 C 15.277344 -4.074219 15.5625 -6.070312 15.5625 -8.238281 C 15.5625 -8.292969 15.503906 -8.351562 15.445312 -8.351562 L 11.34375 -8.351562 C 11.285156 -8.351562 11.230469 -8.292969 11.230469 -8.238281 C 11.230469 -7.867188 11.113281 -6.414062 11.113281 -5.929688 C 11.113281 -5.871094 11.230469 -5.699219 11.230469 -5.699219 C 11.230469 -5.699219 9.320312 -4.390625 8.066406 -4.390625 C 6.8125 -4.390625 4.816406 -5.699219 4.816406 -5.699219 C 4.816406 -5.699219 4.929688 -5.871094 4.929688 -5.929688 C 4.703125 -7.835938 4.644531 -14.535156 4.929688 -16.300781 C 4.929688 -16.359375 4.816406 -16.53125 4.816406 -16.53125 C 4.816406 -16.53125 6.8125 -17.839844 8.066406 -17.839844 C 9.320312 -17.839844 11.230469 -16.53125 11.230469 -16.53125 C 11.230469 -16.53125 11.113281 -16.359375 11.113281 -16.300781 C 11.113281 -15.789062 11.230469 -14.507812 11.230469 -13.992188 C 11.230469 -13.9375 11.285156 -13.878906 11.34375 -13.878906 L 15.445312 -13.878906 C 15.503906 -13.878906 15.53125 -13.9375 15.53125 -13.992188 C 15.53125 -15.875 15.53125 -17.554688 15.277344 -18.523438 C 15.246094 -18.640625 15.417969 -18.953125 15.417969 -18.953125 C 15.417969 -18.953125 10.203125 -22.65625 8.066406 -22.65625 C 5.898438 -22.65625 0.65625 -18.953125 0.65625 -18.953125 C 0.65625 -18.953125 0.882812 -18.667969 0.855469 -18.554688 C 0.113281 -15.589844 0.511719 -6.128906 0.855469 -2.878906 C 0.855469 -2.792969 0.65625 -2.480469 0.65625 -2.480469 C 0.65625 -2.480469 6.011719 0.425781 8.066406 0.425781 C 10.117188 0.425781 15.476562 -2.480469 15.476562 -2.480469 C 15.476562 -2.480469 15.277344 -2.792969 15.277344 -2.878906 Z M 15.277344 -2.878906 "/></g></g></g><g fill="#ffffff" fill-opacity="1"><g transform="translate(166.127647, 39.404653)"><g><path d="M 0.285156 -0.34375 C 0.285156 -0.226562 0.371094 -0.140625 0.457031 -0.140625 C 0.457031 -0.140625 1.597656 0.0273438 3.421875 0.0273438 C 4.816406 0.0273438 6.296875 -0.0859375 6.296875 -0.0859375 C 6.46875 -0.0859375 6.667969 -0.257812 6.667969 -0.457031 L 6.667969 -4.191406 C 6.667969 -4.332031 6.554688 -4.445312 6.414062 -4.445312 L 5.757812 -4.445312 L 6.128906 -6.441406 C 7.4375 -6.070312 8.976562 -6.269531 10.03125 -6.46875 L 10.402344 -4.445312 C 9.945312 -4.445312 9.691406 -4.472656 9.691406 -4.472656 C 9.574219 -4.472656 9.519531 -4.359375 9.519531 -4.246094 L 9.519531 -0.34375 C 9.519531 -0.226562 9.574219 -0.140625 9.691406 -0.140625 C 9.691406 -0.140625 10.828125 0.0273438 12.625 0.0273438 C 14.050781 0.0273438 15.53125 -0.0859375 15.53125 -0.0859375 C 15.703125 -0.0859375 15.875 -0.257812 15.875 -0.457031 L 15.875 -4.191406 C 15.875 -4.332031 15.789062 -4.445312 15.617188 -4.445312 C 15.617188 -4.445312 15.21875 -4.445312 14.59375 -4.417969 L 10.289062 -21.917969 L 10.375 -22.230469 L 5.785156 -22.230469 L 5.871094 -21.917969 L 1.566406 -4.445312 C 0.855469 -4.445312 0.457031 -4.472656 0.457031 -4.472656 C 0.371094 -4.472656 0.285156 -4.359375 0.285156 -4.246094 Z M 8.09375 -16.785156 L 9.234375 -10.660156 C 8.4375 -10.515625 7.722656 -10.488281 6.925781 -10.660156 Z M 8.09375 -16.785156 "/></g></g></g><g fill="#ffffff" fill-opacity="1"><g transform="translate(186.190174, 39.404653)"><g><path d="M 8.976562 -0.171875 C 8.976562 -0.0585938 9.0625 0.0273438 9.148438 0.0273438 C 9.148438 0.0273438 10.316406 0.199219 12.113281 0.199219 C 13.507812 0.199219 14.992188 0.0859375 14.992188 0.0859375 C 15.191406 0.0859375 15.363281 -0.0859375 15.363281 -0.285156 L 15.363281 -3.988281 C 15.363281 -4.160156 15.246094 -4.273438 15.105469 -4.273438 C 15.105469 -4.273438 14.847656 -4.273438 14.390625 -4.246094 L 13.054688 -7.667969 C 13.878906 -8.121094 14.648438 -8.722656 15.363281 -9.40625 C 15.363281 -9.546875 15.390625 -9.691406 15.390625 -9.832031 C 15.503906 -11.085938 15.5625 -12.425781 15.589844 -13.738281 C 15.589844 -14.078125 15.847656 -14.25 15.847656 -14.25 C 15.847656 -14.25 15.589844 -14.449219 15.589844 -14.761719 C 15.5625 -16.359375 15.476562 -17.839844 15.363281 -19.007812 C 14.164062 -20.207031 12.453125 -21.402344 11.371094 -22 C 10.316406 -22.171875 8.066406 -22.203125 6.097656 -22.203125 L 3.875 -22.203125 L 0.828125 -22 C 0.683594 -22 0.570312 -21.886719 0.570312 -21.773438 L 0.570312 -18.070312 C 0.570312 -17.953125 0.683594 -17.839844 0.828125 -17.839844 L 1.738281 -17.871094 L 1.738281 -14.648438 C 1.679688 -14.390625 1.480469 -14.25 1.480469 -14.25 C 1.480469 -14.25 1.679688 -14.105469 1.738281 -13.851562 C 1.765625 -11.230469 1.765625 -8.207031 1.796875 -7.238281 L 1.796875 -4.273438 L 0.910156 -4.273438 C 0.828125 -4.273438 0.742188 -4.191406 0.742188 -4.074219 L 0.742188 -0.171875 C 0.742188 -0.0585938 0.828125 0.0273438 0.910156 0.0273438 C 0.910156 0.0273438 2.050781 0.199219 3.875 0.199219 C 5.273438 0.199219 6.753906 0.0859375 6.753906 0.0859375 C 6.953125 0.0859375 7.125 -0.0859375 7.125 -0.285156 L 7.125 -3.988281 C 7.125 -4.160156 7.011719 -4.273438 6.867188 -4.273438 C 6.867188 -4.273438 6.554688 -4.246094 6.070312 -4.246094 L 6.070312 -6.78125 L 6.867188 -6.753906 C 7.46875 -6.753906 8.035156 -6.753906 8.605469 -6.78125 L 9.492188 -4.273438 L 9.148438 -4.273438 C 9.0625 -4.273438 8.976562 -4.191406 8.976562 -4.074219 Z M 11.058594 -12.597656 C 10.746094 -12.054688 10.03125 -11.628906 9.148438 -11.230469 C 8.40625 -11.113281 6.582031 -11.058594 5.984375 -11.285156 C 5.984375 -11.34375 6.15625 -11.429688 6.128906 -11.542969 C 6.070312 -12.96875 6.070312 -16.246094 6.128906 -17.441406 C 6.15625 -17.527344 6.011719 -17.554688 6.011719 -17.667969 C 6.753906 -17.871094 8.007812 -17.898438 9.0625 -17.753906 C 9.660156 -17.414062 10.402344 -16.816406 11.058594 -15.960938 C 11.230469 -14.992188 11.230469 -13.539062 11.058594 -12.597656 Z M 11.058594 -12.597656 "/></g></g></g><g fill="#ffffff" fill-opacity="1"><g transform="translate(206.224209, 39.404653)"><g><path d="M 14.277344 -6.46875 L 10.574219 -6.46875 C 10.402344 -6.46875 10.316406 -6.355469 10.316406 -6.214844 C 10.316406 -6.214844 10.34375 -5.445312 10.34375 -4.390625 L 10.316406 -4.390625 C 8.804688 -4.390625 7.582031 -4.417969 6.8125 -4.472656 C 6.78125 -4.503906 6.726562 -4.503906 6.699219 -4.503906 L 6.441406 -4.503906 C 6.214844 -4.503906 6.042969 -4.53125 5.984375 -4.53125 L 5.984375 -8.722656 L 10.003906 -8.722656 C 10.203125 -8.722656 10.375 -8.890625 10.375 -9.089844 L 10.375 -10.429688 C 10.375 -10.746094 10.628906 -10.945312 10.628906 -10.945312 C 10.628906 -10.945312 10.375 -11.113281 10.375 -11.484375 L 10.375 -12.796875 C 10.375 -12.996094 10.203125 -13.167969 10.003906 -13.167969 L 5.984375 -13.167969 L 5.984375 -17.585938 C 6.214844 -17.613281 7.921875 -17.753906 10.316406 -17.726562 L 10.34375 -17.726562 C 10.34375 -16.671875 10.316406 -15.902344 10.316406 -15.902344 C 10.316406 -15.761719 10.402344 -15.644531 10.574219 -15.644531 L 14.277344 -15.644531 C 14.476562 -15.644531 14.648438 -15.847656 14.648438 -16.015625 C 14.648438 -16.015625 14.761719 -17.5 14.761719 -18.894531 C 14.761719 -20.71875 14.59375 -21.859375 14.59375 -21.859375 C 14.59375 -21.945312 14.535156 -22 14.449219 -22.03125 C 12.625 -22.171875 10.230469 -22.203125 7.894531 -22.203125 L 7.550781 -22.203125 C 5.726562 -22.203125 0.742188 -22.03125 0.742188 -22.03125 C 0.65625 -22.03125 0.570312 -21.945312 0.570312 -21.832031 L 0.570312 -17.925781 C 0.570312 -17.8125 0.65625 -17.726562 0.742188 -17.726562 C 0.742188 -17.726562 1.027344 -17.726562 1.539062 -17.753906 L 1.539062 -11.484375 C 1.539062 -11.113281 1.28125 -10.945312 1.28125 -10.945312 C 1.28125 -10.945312 1.539062 -10.746094 1.539062 -10.429688 L 1.539062 -4.472656 L 0.742188 -4.53125 C 0.65625 -4.53125 0.570312 -4.417969 0.570312 -4.304688 L 0.570312 -0.425781 C 0.570312 -0.3125 0.65625 -0.199219 0.742188 -0.199219 C 0.742188 -0.199219 1.367188 -0.113281 2.449219 -0.0859375 C 5.726562 0.113281 11.085938 0.140625 14.449219 -0.0859375 C 14.535156 -0.113281 14.59375 -0.171875 14.59375 -0.257812 C 14.59375 -0.257812 14.761719 -1.367188 14.761719 -3.164062 C 14.761719 -4.589844 14.648438 -6.097656 14.648438 -6.097656 C 14.648438 -6.296875 14.476562 -6.46875 14.277344 -6.46875 Z M 14.277344 -6.46875 "/></g></g></g></svg>