<?xml version="1.0" encoding="utf-8"?>
<!-- Svg Vector Icons : http://www.onlinewebfonts.com/icon -->
<!DOCTYPE svg PUBLIC "-//W3C//DTD SVG 1.1//EN" "http://www.w3.org/Graphics/SVG/1.1/DTD/svg11.dtd">
<svg version="1.1" xmlns="http://www.w3.org/2000/svg" xmlns:xlink="http://www.w3.org/1999/xlink" x="0px" y="0px" viewBox="0 0 256 256" enable-background="new 0 0 256 256" xml:space="preserve">
<metadata> Svg Vector Icons : http://www.onlinewebfonts.com/icon </metadata>
<g><g><path fill="#000000" d="M128,246c-65.2,0-118-52.8-118-118C10,62.8,62.8,10,128,10c65.2,0,118,52.8,118,118C246,193.2,193.2,246,128,246z M128,15.1C65.4,15.1,15.1,65.4,15.1,128c0,62.1,50.3,112.9,112.9,112.9S240.9,190.1,240.9,128C240.9,65.4,190.6,15.1,128,15.1z M184.4,194.7h-41c-5.6,0-10.3-4.6-10.3-10.3v-41.1c0-5.6,4.6-10.3,10.3-10.3h41c5.6,0,10.3,4.6,10.3,10.3v41C194.7,190.1,190.1,194.7,184.4,194.7z M184.4,143.4h-41v41h41V143.4L184.4,143.4z M184.4,122.9h-41c-5.6,0-10.3-4.6-10.3-10.3v-41c0-5.6,4.6-10.3,10.3-10.3h41c5.6,0,10.3,4.6,10.3,10.3v41C194.7,118.2,190.1,122.9,184.4,122.9z M184.4,71.6h-41v41h41V71.6L184.4,71.6z M112.6,194.7h-41c-5.6,0-10.3-4.6-10.3-10.3v-41.1c0-5.6,4.6-10.3,10.3-10.3h41c5.6,0,10.3,4.6,10.3,10.3v41C122.9,190.1,118.2,194.7,112.6,194.7z M112.6,143.4h-41v41h41V143.4z M112.6,122.9h-41c-5.6,0-10.3-4.6-10.3-10.3v-41c0-5.6,4.6-10.3,10.3-10.3h41c5.6,0,10.3,4.6,10.3,10.3v41C122.9,118.2,118.2,122.9,112.6,122.9z M112.6,71.6h-41v41h41V71.6z"/></g></g>
</svg>