<?xml version="1.0" ?>
<!DOCTYPE svg  PUBLIC '-//W3C//DTD SVG 1.1//EN'  'http://www.w3.org/Graphics/SVG/1.1/DTD/svg11.dtd'>
<!-- Uploaded to: SVG Repo, www.svgrepo.com, Generator: SVG Repo Mixer Tools -->
<svg fill="#000000" width="800px" height="800px" viewBox="0 0 32 32" style="fill-rule:evenodd;clip-rule:evenodd;stroke-linejoin:round;stroke-miterlimit:2;" version="1.1" xml:space="preserve" xmlns="http://www.w3.org/2000/svg" xmlns:serif="http://www.serif.com/" xmlns:xlink="http://www.w3.org/1999/xlink">
<g id="Layer1">
<path d="M2.472,2.151l-0.021,0.013l-0.02,0.014l-0.02,0.014l-0.019,0.014l-0.019,0.015l-0.018,0.015l-0.018,0.016l-0.018,0.016l-0.018,0.016l-0.017,0.017l-0.016,0.018l-0.016,0.018l-0.016,0.018l-0.015,0.018l-0.015,0.019l-0.014,0.019l-0.014,0.02l-0.014,0.02l-0.013,0.02l-0.012,0.021l-0.012,0.021l-0.012,0.021l-0.011,0.022l-0.011,0.021l-0.01,0.023l-0.009,0.022l-0.009,0.023l-0.008,0.023l-0.008,0.023l-0.008,0.023l-0.006,0.024l-0.007,0.024l-0.005,0.024l-0.005,0.025l-0.005,0.024l-0.003,0.025l-0.003,0.025l-0.003,0.025l-0.002,0.026l-0.001,0.025l-0.001,0.026l0,0.013l0,26c0,0.552 0.448,1 1,1l26,0c0.552,0 1,-0.448 1,-1l0,-26l-0,-0.026l-0.001,-0.025l-0.002,-0.026l-0.002,-0.025l-0.003,-0.025l-0.004,-0.025l-0.004,-0.025l-0.004,-0.025l-0.006,-0.024l-0.005,-0.024l-0.007,-0.024l-0.007,-0.023l-0.008,-0.024l-0.008,-0.023l-0.008,-0.023l-0.01,-0.022l-0.009,-0.023l-0.011,-0.022l-0.01,-0.021l-0.012,-0.022l-0.011,-0.021l-0.013,-0.021l-0.013,-0.02l-0.013,-0.02l-0.013,-0.02l-0.015,-0.019l-0.014,-0.019l-0.015,-0.019l-0.016,-0.018l-0.016,-0.018l-0.016,-0.018l-0.017,-0.017l-0.017,-0.017l-0.018,-0.016l-0.018,-0.016l-0.018,-0.016l-0.019,-0.015l-0.019,-0.014l-0.023,-0.017l-0.019,-0.014l-0.02,-0.013l-0.021,-0.012l-0.02,-0.012l-0.021,-0.012l-0.021,-0.011l-0.022,-0.011l-0.022,-0.01l-0.022,-0.009l-0.022,-0.009l-0.023,-0.009l-0.023,-0.008l-0.023,-0.008l-0.024,-0.007l-0.024,-0.006l-0.024,-0.006l-0.024,-0.005l-0.025,-0.005l-0.026,-0.004l-0.025,-0.003l-0.026,-0.003l-0.026,-0.002l-0.021,-0.002l-0.025,-0.001l-0.013,0c-0.004,0 -0.009,0 -0.013,-0l-26,-0c-0.194,0 -0.375,0.055 -0.528,0.151Zm25.528,7.849l0,18c-0,-0 -24,-0 -24,-0l0,-18l24,0Zm-12,3c-2.098,0 -4.111,0.86 -5.763,1.918c-2.384,1.526 -4,3.435 -4,3.435c-0.316,0.373 -0.316,0.921 0,1.294c0,-0 1.616,1.909 4,3.435c1.652,1.058 3.665,1.918 5.763,1.918c2.098,-0 4.111,-0.86 5.763,-1.918c2.384,-1.526 4,-3.435 4,-3.435c0.316,-0.373 0.316,-0.921 -0,-1.294c-0,0 -1.616,-1.909 -4,-3.435c-1.652,-1.058 -3.665,-1.918 -5.763,-1.918l-0,0Zm-0,2c1.71,-0 3.338,0.74 4.685,1.602c1.293,0.828 2.333,1.782 2.946,2.398c-0.613,0.616 -1.653,1.57 -2.946,2.398c-1.347,0.862 -2.975,1.602 -4.685,1.602c-1.71,0 -3.338,-0.74 -4.685,-1.602c-1.293,-0.828 -2.333,-1.782 -2.946,-2.398c0.613,-0.616 1.653,-1.57 2.946,-2.398c1.347,-0.862 2.975,-1.602 4.685,-1.602Zm0,1c-1.656,-0 -3,1.344 -3,3c0,1.656 1.344,3 3,3c1.656,-0 3,-1.344 3,-3c0,-1.656 -1.344,-3 -3,-3Zm-6,-9l1,0c0.552,0 1,-0.448 1,-1c0,-0.552 -0.448,-1 -1,-1l-1,0c-0.552,0 -1,0.448 -1,1c0,0.552 0.448,1 1,1Zm-4,0l1,0c0.552,0 1,-0.448 1,-1c0,-0.552 -0.448,-1 -1,-1l-1,0c-0.552,0 -1,0.448 -1,1c0,0.552 0.448,1 1,1Z"/>
</g>
</svg>