<?xml version="1.0" encoding="iso-8859-1"?>
<!-- Uploaded to: SVG Repo, www.svgrepo.com, Generator: SVG Repo Mixer Tools -->
<!DOCTYPE svg PUBLIC "-//W3C//DTD SVG 1.1//EN" "http://www.w3.org/Graphics/SVG/1.1/DTD/svg11.dtd">
<svg fill="#000000" height="800px" width="800px" version="1.1" id="Capa_1" xmlns="http://www.w3.org/2000/svg" xmlns:xlink="http://www.w3.org/1999/xlink" 
	 viewBox="0 0 307.188 307.188" xml:space="preserve">
<g>
	<polygon points="123.059,153.93 122.969,153.93 110.163,131.463 103.063,131.463 103.063,163.726 109.354,163.726 109.354,140.72 
		109.444,140.72 122.609,163.726 129.35,163.726 129.35,131.463 123.059,131.463 	"/>
	<polygon points="142.428,149.661 158.155,149.661 158.155,143.955 142.428,143.955 142.428,137.17 159.548,137.17 159.548,131.463 
		135.822,131.463 135.822,163.726 160.312,163.726 160.312,158.019 142.428,158.019 	"/>
	<path d="M192.038,155.054h-0.09c-0.719-4.179-1.034-5.887-4.808-23.591h-7.145c-3.415,16.941-3.909,20.221-4.493,23.591h-0.09
		c-0.584-3.685-0.989-5.931-5.123-23.591H163.1l9.122,32.263h6.291c3.46-16.626,3.999-18.963,4.988-25.163h0.09
		c1.078,6.201,1.662,9.346,4.988,25.163h6.471l9.077-32.263h-6.83C193.117,149.212,192.577,151.998,192.038,155.054z"/>
	<path d="M307.098,126.598c-0.522-3.658-3.228-6.625-6.822-7.482l-77.431-18.468l12.315-78.646c0.572-3.65-1.146-7.279-4.332-9.151
		c-3.185-1.872-7.191-1.607-10.103,0.668l-62.717,49.023L104.2,3.881c-2.498-2.723-6.406-3.643-9.855-2.319
		c-3.45,1.323-5.74,4.621-5.776,8.315l-0.775,79.6L8.379,94.97c-3.686,0.255-6.842,2.737-7.958,6.259
		c-1.116,3.522,0.034,7.369,2.9,9.701l61.75,50.236l-45.218,65.513c-2.099,3.041-2.126,7.056-0.068,10.125
		c2.058,3.069,5.786,4.568,9.392,3.781l77.776-16.957l23.027,76.2c1.069,3.537,4.191,6.061,7.873,6.366
		c0.25,0.021,0.498,0.031,0.745,0.031c3.402,0,6.542-1.927,8.067-5.016l35.235-71.38l73.933,29.506
		c3.432,1.37,7.351,0.502,9.886-2.187c2.534-2.689,3.167-6.654,1.597-9.998l-33.838-72.053l69.165-39.406
		C305.854,133.862,307.62,130.256,307.098,126.598z M217.341,163.574c-4.08,2.325-5.688,7.395-3.691,11.646l27.684,58.947
		l-60.485-24.139c-4.359-1.741-9.328,0.165-11.406,4.375l-28.826,58.396l-18.838-62.339c-1.167-3.864-4.72-6.398-8.609-6.398
		c-0.635,0-1.279,0.067-1.923,0.208l-63.629,13.872l36.993-53.597c2.667-3.865,1.916-9.13-1.727-12.094l-50.518-41.098l64.968-4.495
		c4.685-0.324,8.333-4.195,8.378-8.891l0.634-65.121l44.021,47.992c3.175,3.461,8.477,3.899,12.175,1.007l51.309-40.106
		l-10.075,64.34c-0.727,4.639,2.236,9.057,6.804,10.146l63.346,15.109L217.341,163.574z"/>
</g>
</svg>